<svg xmlns="http://www.w3.org/2000/svg" viewBox="0 0 841.89 595.28"><defs><style>.cls-1{isolation:isolate;}.cls-2{fill:#ee8026;}.cls-3{mix-blend-mode:soft-light;}.cls-4,.cls-7{fill:#fff;}.cls-5{fill:#1f71b8;}.cls-6{fill:none;stroke:#1f71b8;stroke-linecap:round;stroke-linejoin:round;stroke-width:8px;}.cls-7{stroke:#ec8424;stroke-miterlimit:10;stroke-width:7px;}</style></defs><g class="cls-1"><g id="Layer_1" data-name="Layer 1"><path class="cls-2" d="M274.94,169.12a4.7,4.7,0,0,0-4.65-2.91,4.62,4.62,0,0,0-4.29,3.66c-.71,3.18-1.4,6.36-2.1,9.55l-1.18,5.36a4.9,4.9,0,0,0,0,1.71l0,.08a4.6,4.6,0,0,0,3.31,3.64,5,5,0,0,0,1.36.19,4.53,4.53,0,0,0,4.46-3.58c1.16-5,2.26-10.11,3.32-15A4.4,4.4,0,0,0,274.94,169.12Z"/><path class="cls-2" d="M250.4,186.32c-.22-1.1-.45-2.19-.69-3.28l-1-4.87c-.12-.56-.23-1.12-.36-1.68a5,5,0,0,0-2.2-3.15,4.57,4.57,0,0,0-3.52-.57,4.73,4.73,0,0,0-3.47,5.75l.46,2.16q.79,3.76,1.6,7.53a5,5,0,0,0,2.15,3.2,4.51,4.51,0,0,0,2.45.71,4.77,4.77,0,0,0,1-.12A4.69,4.69,0,0,0,250.4,186.32Z"/><path class="cls-2" d="M296.21,186.26v0a4.45,4.45,0,0,0-3.46-3.42,4.53,4.53,0,0,0-4.76,1.65c-1.26,1.6-2.49,3.2-3.73,4.81L282.88,191a5.14,5.14,0,0,0-1.09,3.78,4.63,4.63,0,0,0,1.8,3.08,4.56,4.56,0,0,0,2.78.95,5,5,0,0,0,3.94-2l3.14-4.06,1.89-2.45A4.78,4.78,0,0,0,296.21,186.26Z"/><path class="cls-2" d="M275.24,287.45c-2.83.72-5.69,1.29-8.55,1.88a10.06,10.06,0,0,1-7.83-1.51c-4.48-3.14-6.45-8.68-10.34-12s-7.9-6.08-11.78-9.2a27.12,27.12,0,0,1-10.45-20.28A29.1,29.1,0,0,1,233,226c6.13-7.69,14.22-12,23.79-13.81a7.27,7.27,0,0,0,.8-.22,30.57,30.57,0,0,1,16.83,5.4c8.91,6.1,13.6,14.64,13.55,25.64a28.73,28.73,0,0,1-4,14.2c-2.77,4.84-5.64,9.63-8,14.69A43.87,43.87,0,0,0,272.33,282C271.76,284.91,272.59,286.39,275.24,287.45Z"/><g class="cls-3"><path class="cls-4" d="M211.21,256.22a55.23,55.23,0,0,1,3.57-15.6,58.87,58.87,0,0,1,7.83-14.42,45.29,45.29,0,0,1,12.71-11.73,41.31,41.31,0,0,1,4-2.11c1.38-.63,2.86-1.09,4.29-1.63s3-.72,4.5-1.06,3.06-.34,4.59-.5,3.06.07,4.58.11a44.27,44.27,0,0,1,4.48.61,30.78,30.78,0,0,1,4.3,1.1l2.12.63c.69.23,1.34.54,2,.82a58.85,58.85,0,0,1,14.41,8.62,80.75,80.75,0,0,1,20.14,24.73c-8.95-5.73-17.26-11.61-25.83-16.22s-17.37-7.72-25.65-7.4-16.09,4.4-23.05,10.82a91.19,91.19,0,0,0-9.89,10.74C217.18,247.66,214.19,251.82,211.21,256.22Z"/></g><path class="cls-4" d="M259.09,228.83A8.8,8.8,0,0,1,261.66,241a8.65,8.65,0,0,1-12.07,2.56A8.8,8.8,0,0,1,247,231.39a8.65,8.65,0,0,1,12.07-2.56Z"/><path class="cls-5" d="M270.46,205c-7.81-2.85-16-3.22-25.06-1.14a42.73,42.73,0,0,0-25.94,16.92,39.17,39.17,0,0,0,4.35,51.17A75.75,75.75,0,0,0,233,279.2c2.09,1.49,4.26,3,6.24,4.67a4.59,4.59,0,0,0,3.89.94A5.65,5.65,0,0,0,247,282c.85-1.57,1.73-4.62-2.07-7.56l-1.32-1c-2.74-2.14-5.58-4.34-8.48-6.39-7.58-5.35-11.67-12.64-12.14-21.66-.5-9.62,3.26-17.84,11.19-24.45a32.58,32.58,0,0,1,15.78-6.88,32.59,32.59,0,0,1,23.62,4.6c8.39,5.76,12.72,13.72,12.87,23.68a26.67,26.67,0,0,1-3.6,13.8l-1.52,2.62c-2.31,4-4.71,8.16-6.72,12.47a44.85,44.85,0,0,0-3.8,10.43c-.71,3.66.48,5.89,3.87,7.24l.25.1h.69c3.46,0,5.41-1.75,6-5.32a10.24,10.24,0,0,1,.47-1.83,104.41,104.41,0,0,1,9.11-18.17c7.05-11.61,8.22-23.63,3.49-35.73C290.33,217,282.2,209.24,270.46,205Z"/><path class="cls-5" d="M256.88,301.56q9.14-1.9,18.25-3.87a3.88,3.88,0,1,0-1.65-7.58l-9,1.89c-3.1.66-6.19,1.29-9.28,2a3.88,3.88,0,1,0,1.65,7.59Z"/><path class="cls-5" d="M276,301.53q-9.13,1.91-18.26,3.85a3.9,3.9,0,0,0-3.14,4.61,3.84,3.84,0,0,0,4.77,3c3-.63,6.05-1.28,9.08-1.92h0l8.87-1.87a4.32,4.32,0,0,0,1.76-.65,3.91,3.91,0,0,0,1.37-4.85A3.85,3.85,0,0,0,276,301.53Z"/><path class="cls-5" d="M257,242.74a8.1,8.1,0,1,0-6.07-1.14A7.78,7.78,0,0,0,257,242.74Z"/><path class="cls-5" d="M611.59,235.86a34.19,34.19,0,0,0-5.68.47v14.55a20.6,20.6,0,0,1,11.37,0V236.33A34.4,34.4,0,0,0,611.59,235.86Zm8.27,1v14.95a20.72,20.72,0,1,1-16.54,0V236.86a34.93,34.93,0,1,0,16.54,0Zm-8.27-1a34.19,34.19,0,0,0-5.68.47v14.55a20.6,20.6,0,0,1,11.37,0V236.33A34.4,34.4,0,0,0,611.59,235.86Z"/><path class="cls-5" d="M392.05,281H359.26v31.29H320.12a6.37,6.37,0,0,1-6.36-6.37V303a6.37,6.37,0,0,1,6.36-6.37H342.4V281H313.76v-40a10.39,10.39,0,0,1,10.38-10.39h24.73a10.39,10.39,0,0,1,10.39,10.39v24.42h32.79Zm-49.51-15.62L342.4,247h-7.57a5.31,5.31,0,0,0-5.31,5.31v13.05Z"/><path class="cls-5" d="M394.38,265.36V230.55h34a7.82,7.82,0,0,1,7.82,7.81v.41a7.82,7.82,0,0,1-7.82,7.82H410.28v18.77h18.08a7.82,7.82,0,0,1,7.82,7.81h0a7.81,7.81,0,0,1-7.82,7.81H359.94V265.36Z"/><path class="cls-5" d="M512.13,283.57H483.87l-.51-15.63V242.11a8.15,8.15,0,0,1,8.15-8.15h0a8.15,8.15,0,0,1,8.15,8.15v25.83h12.47Z"/><path class="cls-5" d="M531.89,228.89l-16.33,15.49a8.06,8.06,0,0,0-.41,11.26l.15.16a8.06,8.06,0,0,0,11.49.42l16.4-15.57Z"/><path class="cls-5" d="M580.75,283.57H509.9V267.94h37.55L519.77,240l12.06-11,38,38.91h11Z"/><path class="cls-5" d="M251.93,386l.08-32-.43.78-.68,1-7.46,11.4a25.26,25.26,0,0,1-5.07,0l-8.23-12.43a3.19,3.19,0,0,0-.43-.78c0,3.26.09,5.84.09,6.27v25.64s-.12.05-.33.08a9.21,9.21,0,0,1-10-9.24c0-14.38,0-40.87,0-41.62,0,0,9.43.09,9.78,0h.08a.38.38,0,0,1,.43.09c.69,1.29,8.06,12.18,8.58,12.87l2.57,3.94,2.66-3.94c.43-.69,7.81-11.58,8.49-12.87a.38.38,0,0,1,.43-.09h.09c.34.09,9.78,0,9.78,0v50.69C262.31,386.18,251.93,386.26,251.93,386Z"/><path class="cls-5" d="M334.69,386.18,327.32,374,326,371.85l-.94-1.54c0,3.35-.09,15,0,15.87l-8.84-.09a6,6,0,0,0-1.2,0,.34.34,0,0,1-.43-.43l-.08-50.17c0-.26,10.55-.35,10.55,0v14.66c.94-1.54,1.71-2.65,1.8-2.83l7.72-11.75c.08-.08,12.61.26,12.61.26L330.83,360c2,3.34,5.15,8.32,5.41,8.75L346.79,386C346.79,386.18,334.78,386.35,334.69,386.18Z"/><path class="cls-5" d="M385.55,335.49l-.25,50.17a.43.43,0,0,1-.52.43l-9.78.09V367.39H364.45l-.08,18.27a.43.43,0,0,1-.52.43l-9.78.09c.07-.75,0-27,0-41.45a9.3,9.3,0,0,1,10.2-9.32c.21,0,.33,0,.33.08l-.17,22.13h10.47v-.43l.08-21.7C375,335.14,385.55,335.23,385.55,335.49Z"/><path class="cls-5" d="M430.92,345.78h-14l-.08,39.88a.44.44,0,0,1-.43.52h0a9.82,9.82,0,0,1-9.82-9.78l-.13-30.71H392.75a.35.35,0,0,1-.34-.43c.09-.34,0-9.86,0-9.86h38.43C431.09,335.4,431.09,345.78,430.92,345.78Z"/><path class="cls-5" d="M516,385.23c-2.06,0-9.09,0-10.47-.08a.47.47,0,0,1-.34-.17c-.26-.69-1.37-2.92-2.49-5.49l-2.57-6.18-.6-1.37s-.94-2.23-1.8-4.12c0,6.69-.09,15.44,0,16.81a.56.56,0,0,1-.52.52h0a9.75,9.75,0,0,1-9.74-9.75c0-14.73,0-40.95,0-40.95,0-.34,26.93-.08,27.27-.08h.43c.69,0,1,0,1,.08l.17,30.8a.3.3,0,0,1-.43.25l-7.72.09c2.58,6.09,7.12,16.64,8.15,19A.38.38,0,0,1,516,385.23ZM498,355h7.72l-.09-9.61v-.77H498Z"/><path class="cls-5" d="M533.64,365.59c-.08,2.66-.08,6-.08,9.09H550.2c.17,0,.17,10.55,0,10.55H523.27c.08-1.11,0-50.78,0-50.78,0-.34,1.11-.17,2.74-.17l24.19.09c.17,0,.08,10.38-.09,10.38l-16.29-.09L533.73,355H550.2c.17,0,.08,10.55-.09,10.55Z"/><path class="cls-5" d="M633.29,386.31a.37.37,0,0,1-.6-.17c-.94-2.14-11.24-21.27-11.84-22.47l-3.17-5.84v1.55l.05,15.65c0,5.81-4.41,10.41-10.16,11.28h0a.34.34,0,0,1-.43-.43l-.08-50.26c0-.26,9.86-.26,10.29-.17a.69.69,0,0,1,.43.08l7.12,13.64,1.54,3,5.83,11.07.43.77v-2.74l-.26-25.56c0-.26,10.55-.35,10.55,0V386.4Z"/><path class="cls-5" d="M611.59,220.15a5.68,5.68,0,0,0-5.68,5.68v34.26a5.69,5.69,0,1,0,11.37,0V225.83A5.69,5.69,0,0,0,611.59,220.15ZM609.72,228a1.87,1.87,0,1,1,3.73,0v4.92a1.87,1.87,0,0,1-3.73,0Z"/><path class="cls-2" d="M578.69,343.19a21.28,21.28,0,0,0-3.5.29v8.95a12.5,12.5,0,0,1,7,0v-8.95A21.28,21.28,0,0,0,578.69,343.19Zm5.09.61V353a12.73,12.73,0,1,1-10.17,0V343.8a21.48,21.48,0,1,0,10.17,0Zm-5.09-.61a21.28,21.28,0,0,0-3.5.29v8.95a12.5,12.5,0,0,1,7,0v-8.95A21.28,21.28,0,0,0,578.69,343.19Z"/><path class="cls-2" d="M578.69,333.53a3.5,3.5,0,0,0-3.5,3.5v21.06a3.5,3.5,0,0,0,7,0V337A3.51,3.51,0,0,0,578.69,333.53Zm-1.15,4.82a1.16,1.16,0,0,1,1.15-1.16,1.14,1.14,0,0,1,1.14,1.16v3a1.14,1.14,0,0,1-1.14,1.15,1.16,1.16,0,0,1-1.15-1.15Z"/><path class="cls-2" d="M288,344.14a21.08,21.08,0,0,0-3.49.28v8.95a12.71,12.71,0,0,1,7,0v-8.95A21.2,21.2,0,0,0,288,344.14Zm5.09.61v9.19a12.75,12.75,0,1,1-10.17,0v-9.19a21.48,21.48,0,1,0,10.17,0Zm-5.09-.61a21.08,21.08,0,0,0-3.49.28v8.95a12.71,12.71,0,0,1,7,0v-8.95A21.2,21.2,0,0,0,288,344.14Z"/><path class="cls-2" d="M288,334.48a3.49,3.49,0,0,0-3.49,3.49V359a3.5,3.5,0,0,0,7,0V338A3.5,3.5,0,0,0,288,334.48Zm-1.15,4.81a1.15,1.15,0,1,1,2.3,0v3a1.15,1.15,0,0,1-2.3,0Z"/><path class="cls-2" d="M460.73,340l-10.26-5.46,11.33-21.31L422,323.1a5.82,5.82,0,0,1-5.83-9.41L471.57,247a3.12,3.12,0,0,1,5.51,1.87l.53,12.84a8.44,8.44,0,0,1-2.39,6.23l-38.5,39.5,34.94-8.66a5.8,5.8,0,0,1,6.78,3.44,6,6,0,0,1-.35,5.11Z"/><polyline class="cls-6" points="464.22 384.04 474.75 356.14 464.1 339.49 446.48 339.49 436.08 356.38 446.66 384.27"/><circle class="cls-7" cx="426.08" cy="313.12" r="8.92"/><circle class="cls-7" cx="473.06" cy="303.48" r="8.92"/><circle class="cls-2" cx="533.26" cy="216.98" r="8.08"/><circle class="cls-2" cx="482.72" cy="216.98" r="8.08"/><circle class="cls-2" cx="500.16" cy="216.98" r="8.08"/><rect class="cls-2" x="447.17" y="354.42" width="16.48" height="8.21" rx="2.94"/></g></g></svg>