<svg xmlns="http://www.w3.org/2000/svg" viewBox="0 0 841.89 595.28"><defs><style>.cls-1{isolation:isolate;}.cls-2{fill:#ee8026;}.cls-3{mix-blend-mode:soft-light;}.cls-4{fill:#fff;}.cls-5{fill:#1f71b8;}.cls-6{fill:#ec8424;}</style></defs><g class="cls-1"><g id="Layer_1" data-name="Layer 1"><path class="cls-2" d="M264.06,168.24a4.84,4.84,0,0,0-4.79-3,4.74,4.74,0,0,0-4.4,3.77c-.74,3.27-1.45,6.55-2.17,9.82l-1.21,5.52a5,5,0,0,0,0,1.76v.09a4.77,4.77,0,0,0,3.41,3.74,5.24,5.24,0,0,0,1.4.19,4.73,4.73,0,0,0,2.44-.66,4.68,4.68,0,0,0,2.15-3c1.19-5.2,2.33-10.41,3.42-15.44A4.5,4.5,0,0,0,264.06,168.24Z"/><path class="cls-2" d="M238.81,185.93c-.23-1.12-.47-2.25-.71-3.37l-1-5c-.12-.57-.24-1.15-.37-1.73a5.1,5.1,0,0,0-2.27-3.24,4.67,4.67,0,0,0-3.61-.58,4.86,4.86,0,0,0-3.58,5.91l.48,2.22q.81,3.87,1.65,7.75a5.12,5.12,0,0,0,2.2,3.29,4.62,4.62,0,0,0,2.52.73,5,5,0,0,0,1.08-.12A4.83,4.83,0,0,0,238.81,185.93Z"/><path class="cls-2" d="M286,185.87v0a4.58,4.58,0,0,0-3.55-3.52,4.67,4.67,0,0,0-4.9,1.7c-1.3,1.64-2.57,3.3-3.85,5l-1.41,1.84a5.2,5.2,0,0,0-1.12,3.88,4.77,4.77,0,0,0,1.85,3.17,4.69,4.69,0,0,0,2.86,1,5.15,5.15,0,0,0,4.05-2.09c1.09-1.39,2.16-2.79,3.23-4.18l1.95-2.52A5,5,0,0,0,286,185.87Z"/><path class="cls-2" d="M264.37,290c-2.91.75-5.86,1.34-8.8,1.94a10.37,10.37,0,0,1-8.06-1.55c-4.61-3.23-6.63-8.93-10.63-12.37s-8.14-6.25-12.13-9.47A27.93,27.93,0,0,1,214,247.66a29.9,29.9,0,0,1,6.94-20.88c6.3-7.91,14.63-12.37,24.47-14.21.28-.06.56-.16.83-.23a31.44,31.44,0,0,1,17.31,5.55c9.17,6.28,14,15.06,13.95,26.38a29.72,29.72,0,0,1-4.1,14.62c-2.85,5-5.8,9.9-8.24,15.11a45.07,45.07,0,0,0-3.78,10.35C260.79,287.37,261.64,288.9,264.37,290Z"/><g class="cls-3"><path class="cls-4" d="M198.49,257.85a57,57,0,0,1,3.67-16.05A60.59,60.59,0,0,1,210.22,227a46.43,46.43,0,0,1,13.07-12.06,41.57,41.57,0,0,1,4.13-2.17c1.42-.65,2.94-1.13,4.42-1.68s3.08-.74,4.63-1.09,3.14-.35,4.72-.52,3.14.07,4.71.12a44.41,44.41,0,0,1,4.61.63,33,33,0,0,1,4.43,1.13l2.17.64c.71.24,1.38.56,2.07.85A60.58,60.58,0,0,1,274,221.68a83.07,83.07,0,0,1,20.72,25.44c-9.21-5.89-17.75-11.94-26.58-16.69s-17.86-7.93-26.39-7.61-16.55,4.53-23.71,11.13A94.15,94.15,0,0,0,207.87,245C204.63,249.05,201.55,253.33,198.49,257.85Z"/></g><path class="cls-4" d="M247.75,229.68a9.05,9.05,0,0,1,2.65,12.51A8.92,8.92,0,0,1,238,244.82a9.06,9.06,0,0,1-2.65-12.51,8.9,8.9,0,0,1,12.42-2.63Z"/><path class="cls-5" d="M259.45,205.12c-8-2.93-16.47-3.31-25.79-1.17A44,44,0,0,0,207,221.36,40.29,40.29,0,0,0,211.46,274a75.74,75.74,0,0,0,9.44,7.5c2.15,1.53,4.38,3.11,6.42,4.81a4.76,4.76,0,0,0,4,1,5.82,5.82,0,0,0,4-2.87c.88-1.61,1.78-4.76-2.13-7.78l-1.35-1.05c-2.83-2.19-5.75-4.46-8.73-6.57-7.8-5.51-12-13-12.49-22.29-.52-9.89,3.35-18.35,11.51-25.16a33.69,33.69,0,0,1,16.24-7.08,30.36,30.36,0,0,1,7.86-.53,29.92,29.92,0,0,1,16.44,5.27c8.64,5.92,13.09,14.12,13.24,24.36a27.47,27.47,0,0,1-3.71,14.2l-1.55,2.7c-2.39,4.13-4.85,8.4-6.93,12.83a47,47,0,0,0-3.9,10.73c-.74,3.77.49,6.06,4,7.45l.26.1h.71c3.56,0,5.57-1.79,6.13-5.47a10.27,10.27,0,0,1,.48-1.89,106.83,106.83,0,0,1,9.38-18.69c7.25-11.94,8.46-24.31,3.59-36.76C279.89,217.48,271.53,209.52,259.45,205.12Z"/><path class="cls-5" d="M245.48,304.5q9.39-2,18.77-4a4,4,0,1,0-1.7-7.8l-9.23,1.95c-3.18.68-6.36,1.33-9.54,2a4,4,0,1,0,1.7,7.8Z"/><path class="cls-5" d="M265.17,304.47q-9.41,2-18.78,4a4,4,0,0,0-3.24,4.74,4,4,0,0,0,4.91,3.08l9.34-2h0l9.13-1.94a4.55,4.55,0,0,0,1.81-.66,4,4,0,0,0,1.4-5A4,4,0,0,0,265.17,304.47Z"/><path class="cls-5" d="M245.56,244a8.32,8.32,0,1,0-6.25-1.17A8,8,0,0,0,245.56,244Z"/><path class="cls-5" d="M610.44,236.91a35.17,35.17,0,0,0-5.85.48v15a21,21,0,0,1,11.7,0v-15A35.26,35.26,0,0,0,610.44,236.91Zm8.51,1v15.39a21.31,21.31,0,1,1-17,0V237.93a35.94,35.94,0,1,0,17,0Zm-8.51-1a35.17,35.17,0,0,0-5.85.48v15a21,21,0,0,1,11.7,0v-15A35.26,35.26,0,0,0,610.44,236.91Z"/><path class="cls-5" d="M384.55,283.33H350.81v32.19H310.55A6.55,6.55,0,0,1,304,309v-3a6.55,6.55,0,0,1,6.55-6.55h22.92V283.33H304v-41.2a10.68,10.68,0,0,1,10.69-10.68h25.44a10.68,10.68,0,0,1,10.68,10.68v25.13h33.74Zm-50.94-16.07-.14-18.89h-7.79a5.46,5.46,0,0,0-5.47,5.46v13.43Z"/><path class="cls-5" d="M387,267.26V231.45h35a8,8,0,0,1,8,8v.43a8,8,0,0,1-8,8H403.3v19.32h18.62a8,8,0,0,1,8,8h0a8,8,0,0,1-8,8h-70.4V267.26Z"/><path class="cls-5" d="M508.11,286H479l-.52-16.07V243.34a8.39,8.39,0,0,1,8.39-8.39h0a8.39,8.39,0,0,1,8.39,8.39v26.58h12.83Z"/><path class="cls-5" d="M528.43,229.74l-16.79,15.94a8.28,8.28,0,0,0-.43,11.58l.16.17a8.28,8.28,0,0,0,11.82.42l16.87-16Z"/><path class="cls-5" d="M578.71,286h-72.9V269.92h38.63L516,241.15l12.41-11.27,39.06,40h11.28Z"/><path class="cls-5" d="M610.44,220.74a5.85,5.85,0,0,0-5.85,5.85v35.25a5.85,5.85,0,1,0,11.7,0V226.59A5.86,5.86,0,0,0,610.44,220.74Zm-1.93,8.06a1.92,1.92,0,1,1,3.84,0v5.06a1.92,1.92,0,1,1-3.84,0Z"/><path class="cls-2" d="M455.22,344.05l-10.56-5.62,11.66-21.92-41,10.16a6,6,0,0,1-6-9.69l57-68.59a3.21,3.21,0,0,1,5.67,1.92l.54,13.22a8.69,8.69,0,0,1-2.45,6.41l-39.61,40.64,35.94-8.92a6,6,0,0,1,7,3.54,6.15,6.15,0,0,1-.36,5.26Z"/><path class="cls-5" d="M440.74,395.34a5.74,5.74,0,0,1-5.37-3.7l-10.88-28.7a5.72,5.72,0,0,1,.48-5l10.7-17.37a5.72,5.72,0,0,1,4.89-2.73h18.13a5.75,5.75,0,0,1,4.83,2.64l11,17.13a5.71,5.71,0,0,1,.54,5.11l-10.84,28.71a5.73,5.73,0,1,1-10.73-4.05l9.81-26-7.71-12.06H443.76l-7.54,12.24,9.88,26.06a5.73,5.73,0,0,1-3.33,7.4A5.82,5.82,0,0,1,440.74,395.34Z"/><circle class="cls-4" cx="419.56" cy="316.4" r="9.18"/><path class="cls-6" d="M419.59,330.61a14.29,14.29,0,0,1-3.6-.47,14,14,0,1,1,3.6.47Zm0-18.37a4.13,4.13,0,0,0-4,3.11h0a4.15,4.15,0,0,0,3,5.07,4.16,4.16,0,0,0,2.09-8.05A4.27,4.27,0,0,0,419.55,312.24Z"/><circle class="cls-4" cx="467.9" cy="306.49" r="9.18"/><path class="cls-6" d="M467.93,320.69a14.22,14.22,0,0,1-13.78-17.78h0a14.21,14.21,0,1,1,13.78,17.78Zm-4.06-15.25a4.18,4.18,0,0,0,3,5.07,4.16,4.16,0,0,0,4.64-6.13,4.16,4.16,0,0,0-7.62,1.06Z"/><circle class="cls-2" cx="531.67" cy="215.66" r="10.14"/><circle class="cls-2" cx="488.64" cy="220.74" r="10.14"/><circle class="cls-2" cx="488.64" cy="197.37" r="10.14"/></g></g></svg>