<svg width="1328" height="598" viewBox="0 0 1328 598" fill="none" xmlns="http://www.w3.org/2000/svg">
<path fill-rule="evenodd" clip-rule="evenodd" d="M239.133 129.752H45V60H248.839C289.939 60 323.257 87.6256 323.257 121.704V223.984H610.411C651.511 223.984 684.829 251.61 684.829 285.687V387.968H973.197C1014.3 387.968 1047.61 415.593 1047.61 449.671V490.248H1283V560H1037.91C996.808 560 963.49 532.374 963.49 498.296V457.72H675.122C634.023 457.72 600.705 430.094 600.705 396.016V293.736H313.55C272.45 293.736 239.133 266.11 239.133 232.032V129.752Z" fill="#1364A2" fill-opacity="0.3"/>
<path fill-rule="evenodd" clip-rule="evenodd" d="M239.133 119.752H45V50H248.839C289.939 50 323.257 77.6256 323.257 111.704V213.984H610.411C651.511 213.984 684.829 241.61 684.829 275.687V377.968H973.197C1014.3 377.968 1047.61 405.593 1047.61 439.671V480.248H1283V550H1037.91C996.808 550 963.49 522.374 963.49 488.296V447.72H675.122C634.023 447.72 600.705 420.094 600.705 386.016V283.736H313.55C272.45 283.736 239.133 256.11 239.133 222.032V119.752Z" fill="#1364A2"/>
<path fill-rule="evenodd" clip-rule="evenodd" d="M45 79.1699V75H61.5822V79.1699H45ZM79.3777 75H112.542V79.1699H79.3777V75ZM130.337 75H163.502V79.1699H130.337V75ZM181.297 75H214.462V79.1699H181.297V75ZM232.257 75H248.839C254.089 75 259.074 76.0008 263.544 77.7945L265.742 78.6769L263.688 82.4549L261.49 81.5726C257.65 80.0316 253.365 79.1699 248.839 79.1699H232.257V75ZM279.342 90.3614L280.369 92.2504C282.456 96.0904 283.621 100.373 283.621 104.884V122.847H278.768V104.884C278.768 100.996 277.765 97.3141 275.972 94.0152L274.945 92.1262L279.342 90.3614ZM283.621 144.083V180.01H278.768V144.083H283.621ZM283.621 201.245V219.208C283.621 223.097 284.624 226.779 286.418 230.077L287.445 231.966L283.048 233.731L282.021 231.842C279.933 228.002 278.768 223.719 278.768 219.208V201.245H283.621ZM298.701 241.638L300.9 242.52C304.739 244.061 309.024 244.923 313.55 244.923H332.469V249.093H313.55C308.3 249.093 303.315 248.092 298.846 246.298L296.647 245.416L298.701 241.638ZM354.003 244.923H391.841V249.093H354.003V244.923ZM413.376 244.923H451.214V249.093H413.376V244.923ZM472.748 244.923H510.586V249.093H472.748V244.923ZM532.12 244.923H569.958V249.093H532.12V244.923ZM591.492 244.923H610.411C615.661 244.923 620.646 245.924 625.116 247.717L627.314 248.6L625.26 252.378L623.062 251.495C619.222 249.954 614.937 249.093 610.411 249.093H591.492V244.923ZM640.914 260.284L641.941 262.173C644.029 266.013 645.193 270.296 645.193 274.807V292.77H640.34V274.807C640.34 270.918 639.337 267.237 637.544 263.938L636.517 262.049L640.914 260.284ZM645.193 314.006V349.932H640.34V314.006H645.193ZM645.193 371.168V389.131C645.193 393.02 646.196 396.701 647.99 400L649.017 401.889L644.62 403.654L643.593 401.765C641.505 397.925 640.34 393.642 640.34 389.131V371.168H645.193ZM660.273 411.56L662.472 412.443C666.311 413.984 670.596 414.846 675.122 414.846H694.109V419.015H675.122C669.872 419.015 664.887 418.015 660.418 416.221L658.219 415.339L660.273 411.56ZM715.751 414.846H753.723V419.015H715.751V414.846ZM775.366 414.846H813.338V419.015H775.366V414.846ZM834.981 414.846H872.953V419.015H834.981V414.846ZM894.595 414.846H932.568V419.015H894.595V414.846ZM954.21 414.846H973.197C978.447 414.846 983.432 415.846 987.901 417.64L990.1 418.522L988.046 422.301L985.847 421.418C982.007 419.877 977.723 419.015 973.197 419.015H954.21V414.846ZM1003.7 430.207L1004.73 432.096C1006.81 435.936 1007.98 440.219 1007.98 444.73V460.811H1003.13V444.73C1003.13 440.841 1002.12 437.16 1000.33 433.861L999.302 431.972L1003.7 430.207ZM1007.98 479.035V495.116C1007.98 499.004 1008.98 502.686 1010.78 505.985L1011.8 507.874L1007.4 509.639L1006.38 507.75C1004.29 503.91 1003.13 499.627 1003.13 495.116V479.035H1007.98ZM1023.06 517.545L1025.26 518.427C1029.1 519.968 1033.38 520.83 1037.91 520.83H1057.35V525H1037.91C1032.66 525 1027.67 523.999 1023.2 522.205L1021 521.323L1023.06 517.545ZM1079.73 520.83H1118.63V525H1079.73V520.83ZM1141.01 520.83H1179.9V525H1141.01V520.83ZM1202.28 520.83H1241.17V525H1202.28V520.83ZM1263.55 520.83H1283V525H1263.55V520.83Z" fill="#FCFCFC"/>
<circle cx="1253" cy="523" r="72.5" stroke="#FF7500" stroke-width="5"/>
<circle cx="1253" cy="523" r="62.9041" fill="#FF7500" stroke="#FF7500" stroke-width="4.19178"/>
<mask id="path-6-outside-1_414_23" maskUnits="userSpaceOnUse" x="1203" y="503" width="100" height="33" fill="black">
<rect fill="white" x="1203" y="503" width="100" height="33"/>
<path d="M1218.49 523.096H1220.63V526H1218.18C1217.09 526 1216.17 525.72 1215.4 525.16C1214.58 525.72 1213.54 526 1212.28 526H1208.94C1208.33 526 1207.9 526.128 1207.65 526.384C1207.39 526.656 1207.26 527.104 1207.26 527.728V531.976L1204.24 533.56V527.584C1204.24 526.32 1204.58 525.288 1205.27 524.488C1205.97 523.688 1206.92 523.232 1208.1 523.12C1207.78 522.336 1207.62 521.448 1207.62 520.456C1207.62 518.696 1208.1 517.304 1209.06 516.28C1209.91 515.384 1211.03 514.936 1212.42 514.936C1213.85 514.936 1214.96 515.392 1215.76 516.304C1216.45 517.088 1216.79 518.112 1216.79 519.376V521.368C1216.79 521.992 1216.92 522.44 1217.17 522.712C1217.45 522.968 1217.89 523.096 1218.49 523.096ZM1213.77 521.752V519.328C1213.77 518.272 1213.32 517.744 1212.42 517.744C1211.85 517.744 1211.39 517.976 1211.05 518.44C1210.73 518.904 1210.57 519.544 1210.57 520.36C1210.57 522.184 1211.17 523.096 1212.37 523.096C1213.3 523.096 1213.77 522.648 1213.77 521.752ZM1227.44 523.096H1229.6V526H1227.15C1225.91 526 1224.89 525.648 1224.11 524.944C1223.23 525.648 1222.15 526 1220.87 526H1219.19V523.096H1220.7C1221.43 523.096 1221.95 522.936 1222.26 522.616C1222.58 522.296 1222.74 521.752 1222.74 520.984V512.128L1225.74 510.52V515.368L1225.76 515.344V521.368C1225.76 521.992 1225.89 522.44 1226.15 522.712C1226.4 522.968 1226.83 523.096 1227.44 523.096ZM1243.81 523.096H1245.83V526H1243.79C1242.52 526 1241.51 525.864 1240.74 525.592C1239.99 525.304 1239.28 524.808 1238.63 524.104C1236.63 525.368 1234.32 526 1231.71 526H1228.16V523.096H1231.74C1234.55 523.096 1236.79 522.256 1238.46 520.576C1237.37 518.672 1236.05 517.72 1234.5 517.72C1233.22 517.72 1231.82 518.416 1230.3 519.808V517.144C1231.64 515.672 1233.16 514.936 1234.86 514.936C1236.11 514.936 1237.32 515.392 1238.51 516.304C1239.69 517.216 1240.74 518.512 1241.65 520.192V521.392C1241.39 521.728 1241.06 522.104 1240.64 522.52C1241.28 522.904 1242.34 523.096 1243.81 523.096ZM1244.38 526V523.096H1245.89C1246.63 523.096 1247.15 522.936 1247.45 522.616C1247.77 522.296 1247.93 521.752 1247.93 520.984V512.128L1250.93 510.52V521.008C1250.93 522.56 1250.46 523.8 1249.52 524.728C1248.65 525.576 1247.5 526 1246.06 526H1244.38ZM1255.25 526V512.128L1258.28 510.52V526H1255.25ZM1267.44 509.176L1268.21 507.784H1268.93C1268.76 507.464 1268.67 507.136 1268.67 506.8C1268.67 506.288 1268.85 505.848 1269.22 505.48C1269.6 505.112 1270.06 504.928 1270.59 504.928C1271.07 504.928 1271.52 505.096 1271.93 505.432V506.824C1271.55 506.488 1271.16 506.32 1270.78 506.32C1270.25 506.32 1269.99 506.56 1269.99 507.04C1269.99 507.28 1270.09 507.528 1270.3 507.784H1272.68L1271.91 509.176H1267.44ZM1268.36 526V512.128L1271.38 510.52V526H1268.36ZM1273.77 526L1275.28 523.096H1279.08C1279.89 523.096 1280.3 522.624 1280.3 521.68C1280.3 519.92 1279.45 518.568 1277.76 517.624L1279.24 515.056C1281.74 516.512 1283.08 518.488 1283.28 520.984C1283.34 521.784 1283.52 522.336 1283.8 522.64C1284.11 522.944 1284.62 523.096 1285.34 523.096H1287.16V526H1285.17C1283.99 526 1282.99 525.672 1282.17 525.016C1281.58 525.672 1280.73 526 1279.63 526H1273.77ZM1294.27 523.096H1296.43V526H1293.98C1292.81 526 1291.85 525.688 1291.08 525.064C1290.31 525.688 1289.34 526 1288.17 526H1285.73V523.096H1287.89C1288.49 523.096 1288.93 522.968 1289.18 522.712C1289.44 522.44 1289.57 521.992 1289.57 521.368V516.928L1292.59 515.344V521.368C1292.59 521.992 1292.72 522.44 1292.97 522.712C1293.23 522.968 1293.66 523.096 1294.27 523.096ZM1291.22 528.184C1291.7 528.184 1292.08 528.32 1292.35 528.592C1292.64 528.88 1292.78 529.264 1292.78 529.744C1292.78 530.816 1292.26 531.352 1291.22 531.352C1290.74 531.352 1290.36 531.208 1290.07 530.92C1289.78 530.632 1289.64 530.24 1289.64 529.744C1289.64 529.28 1289.78 528.904 1290.07 528.616C1290.36 528.328 1290.74 528.184 1291.22 528.184ZM1300.41 512.92C1299.93 512.92 1299.54 512.776 1299.26 512.488C1298.97 512.2 1298.82 511.808 1298.82 511.312C1298.82 510.848 1298.97 510.472 1299.26 510.184C1299.54 509.896 1299.93 509.752 1300.41 509.752C1300.89 509.752 1301.26 509.896 1301.54 510.184C1301.82 510.456 1301.97 510.832 1301.97 511.312C1301.97 512.384 1301.45 512.92 1300.41 512.92ZM1294.98 526V523.096H1297.14C1297.75 523.096 1298.18 522.968 1298.44 522.712C1298.7 522.44 1298.82 521.992 1298.82 521.368V516.928L1301.85 515.344V521.512C1301.85 522.968 1301.4 524.104 1300.5 524.92C1299.72 525.64 1298.7 526 1297.43 526H1294.98Z"/>
</mask>
<path d="M1218.49 523.096H1220.63V526H1218.18C1217.09 526 1216.17 525.72 1215.4 525.16C1214.58 525.72 1213.54 526 1212.28 526H1208.94C1208.33 526 1207.9 526.128 1207.65 526.384C1207.39 526.656 1207.26 527.104 1207.26 527.728V531.976L1204.24 533.56V527.584C1204.24 526.32 1204.58 525.288 1205.27 524.488C1205.97 523.688 1206.92 523.232 1208.1 523.12C1207.78 522.336 1207.62 521.448 1207.62 520.456C1207.62 518.696 1208.1 517.304 1209.06 516.28C1209.91 515.384 1211.03 514.936 1212.42 514.936C1213.85 514.936 1214.96 515.392 1215.76 516.304C1216.45 517.088 1216.79 518.112 1216.79 519.376V521.368C1216.79 521.992 1216.92 522.44 1217.17 522.712C1217.45 522.968 1217.89 523.096 1218.49 523.096ZM1213.77 521.752V519.328C1213.77 518.272 1213.32 517.744 1212.42 517.744C1211.85 517.744 1211.39 517.976 1211.05 518.44C1210.73 518.904 1210.57 519.544 1210.57 520.36C1210.57 522.184 1211.17 523.096 1212.37 523.096C1213.3 523.096 1213.77 522.648 1213.77 521.752ZM1227.44 523.096H1229.6V526H1227.15C1225.91 526 1224.89 525.648 1224.11 524.944C1223.23 525.648 1222.15 526 1220.87 526H1219.19V523.096H1220.7C1221.43 523.096 1221.95 522.936 1222.26 522.616C1222.58 522.296 1222.74 521.752 1222.74 520.984V512.128L1225.74 510.52V515.368L1225.76 515.344V521.368C1225.76 521.992 1225.89 522.44 1226.15 522.712C1226.4 522.968 1226.83 523.096 1227.44 523.096ZM1243.81 523.096H1245.83V526H1243.79C1242.52 526 1241.51 525.864 1240.74 525.592C1239.99 525.304 1239.28 524.808 1238.63 524.104C1236.63 525.368 1234.32 526 1231.71 526H1228.16V523.096H1231.74C1234.55 523.096 1236.79 522.256 1238.46 520.576C1237.37 518.672 1236.05 517.72 1234.5 517.72C1233.22 517.72 1231.82 518.416 1230.3 519.808V517.144C1231.64 515.672 1233.16 514.936 1234.86 514.936C1236.11 514.936 1237.32 515.392 1238.51 516.304C1239.69 517.216 1240.74 518.512 1241.65 520.192V521.392C1241.39 521.728 1241.06 522.104 1240.64 522.52C1241.28 522.904 1242.34 523.096 1243.81 523.096ZM1244.38 526V523.096H1245.89C1246.63 523.096 1247.15 522.936 1247.45 522.616C1247.77 522.296 1247.93 521.752 1247.93 520.984V512.128L1250.93 510.52V521.008C1250.93 522.56 1250.46 523.8 1249.52 524.728C1248.65 525.576 1247.5 526 1246.06 526H1244.38ZM1255.25 526V512.128L1258.28 510.52V526H1255.25ZM1267.44 509.176L1268.21 507.784H1268.93C1268.76 507.464 1268.67 507.136 1268.67 506.8C1268.67 506.288 1268.85 505.848 1269.22 505.48C1269.6 505.112 1270.06 504.928 1270.59 504.928C1271.07 504.928 1271.52 505.096 1271.93 505.432V506.824C1271.55 506.488 1271.16 506.32 1270.78 506.32C1270.25 506.32 1269.99 506.56 1269.99 507.04C1269.99 507.28 1270.09 507.528 1270.3 507.784H1272.68L1271.91 509.176H1267.44ZM1268.36 526V512.128L1271.38 510.52V526H1268.36ZM1273.77 526L1275.28 523.096H1279.08C1279.89 523.096 1280.3 522.624 1280.3 521.68C1280.3 519.92 1279.45 518.568 1277.76 517.624L1279.24 515.056C1281.74 516.512 1283.08 518.488 1283.28 520.984C1283.34 521.784 1283.52 522.336 1283.8 522.64C1284.11 522.944 1284.62 523.096 1285.34 523.096H1287.16V526H1285.17C1283.99 526 1282.99 525.672 1282.17 525.016C1281.58 525.672 1280.73 526 1279.63 526H1273.77ZM1294.27 523.096H1296.43V526H1293.98C1292.81 526 1291.85 525.688 1291.08 525.064C1290.31 525.688 1289.34 526 1288.17 526H1285.73V523.096H1287.89C1288.49 523.096 1288.93 522.968 1289.18 522.712C1289.44 522.44 1289.57 521.992 1289.57 521.368V516.928L1292.59 515.344V521.368C1292.59 521.992 1292.72 522.44 1292.97 522.712C1293.23 522.968 1293.66 523.096 1294.27 523.096ZM1291.22 528.184C1291.7 528.184 1292.08 528.32 1292.35 528.592C1292.64 528.88 1292.78 529.264 1292.78 529.744C1292.78 530.816 1292.26 531.352 1291.22 531.352C1290.74 531.352 1290.36 531.208 1290.07 530.92C1289.78 530.632 1289.64 530.24 1289.64 529.744C1289.64 529.28 1289.78 528.904 1290.07 528.616C1290.36 528.328 1290.74 528.184 1291.22 528.184ZM1300.41 512.92C1299.93 512.92 1299.54 512.776 1299.26 512.488C1298.97 512.2 1298.82 511.808 1298.82 511.312C1298.82 510.848 1298.97 510.472 1299.26 510.184C1299.54 509.896 1299.93 509.752 1300.41 509.752C1300.89 509.752 1301.26 509.896 1301.54 510.184C1301.82 510.456 1301.97 510.832 1301.97 511.312C1301.97 512.384 1301.45 512.92 1300.41 512.92ZM1294.98 526V523.096H1297.14C1297.75 523.096 1298.18 522.968 1298.44 522.712C1298.7 522.44 1298.82 521.992 1298.82 521.368V516.928L1301.85 515.344V521.512C1301.85 522.968 1301.4 524.104 1300.5 524.92C1299.72 525.64 1298.7 526 1297.43 526H1294.98Z" fill="white"/>
<path d="M1220.63 523.096H1221.63V522.096H1220.63V523.096ZM1220.63 526V527H1221.63V526H1220.63ZM1215.4 525.16L1215.99 524.352L1215.42 523.935L1214.83 524.335L1215.4 525.16ZM1207.65 526.384L1206.94 525.677L1206.93 525.688L1206.92 525.699L1207.65 526.384ZM1207.26 531.976L1207.73 532.862L1208.26 532.581V531.976H1207.26ZM1204.24 533.56H1203.24V535.213L1204.7 534.446L1204.24 533.56ZM1205.27 524.488L1204.52 523.827L1204.51 523.836L1205.27 524.488ZM1208.1 523.12L1208.2 524.116L1209.54 523.989L1209.03 522.742L1208.1 523.12ZM1209.06 516.28L1208.34 515.593L1208.33 515.596L1209.06 516.28ZM1215.76 516.304L1215.01 516.963L1215.01 516.964L1215.76 516.304ZM1217.17 522.712L1216.45 523.397L1216.47 523.419L1216.49 523.44L1217.17 522.712ZM1211.05 518.44L1210.24 517.853L1210.24 517.863L1210.23 517.872L1211.05 518.44ZM1218.49 523.096V524.096H1220.63V523.096V522.096H1218.49V523.096ZM1220.63 523.096H1219.63V526H1220.63H1221.63V523.096H1220.63ZM1220.63 526V525H1218.18V526V527H1220.63V526ZM1218.18 526V525C1217.27 525 1216.56 524.77 1215.99 524.352L1215.4 525.16L1214.81 525.968C1215.77 526.67 1216.91 527 1218.18 527V526ZM1215.4 525.16L1214.83 524.335C1214.22 524.753 1213.4 525 1212.28 525V526V527C1213.69 527 1214.94 526.687 1215.96 525.985L1215.4 525.16ZM1212.28 526V525H1208.94V526V527H1212.28V526ZM1208.94 526V525C1208.24 525 1207.48 525.14 1206.94 525.677L1207.65 526.384L1208.35 527.091C1208.34 527.106 1208.35 527.083 1208.45 527.055C1208.54 527.026 1208.7 527 1208.94 527V526ZM1207.65 526.384L1206.92 525.699C1206.4 526.247 1206.26 527.009 1206.26 527.728H1207.26H1208.26C1208.26 527.48 1208.29 527.309 1208.32 527.199C1208.35 527.091 1208.38 527.064 1208.37 527.069L1207.65 526.384ZM1207.26 527.728H1206.26V531.976H1207.26H1208.26V527.728H1207.26ZM1207.26 531.976L1206.8 531.09L1203.77 532.674L1204.24 533.56L1204.7 534.446L1207.73 532.862L1207.26 531.976ZM1204.24 533.56H1205.24V527.584H1204.24H1203.24V533.56H1204.24ZM1204.24 527.584H1205.24C1205.24 526.51 1205.53 525.724 1206.03 525.14L1205.27 524.488L1204.51 523.836C1203.64 524.852 1203.24 526.13 1203.24 527.584H1204.24ZM1205.27 524.488L1206.02 525.149C1206.54 524.563 1207.23 524.207 1208.2 524.116L1208.1 523.12L1208.01 522.124C1206.6 522.257 1205.41 522.813 1204.52 523.827L1205.27 524.488ZM1208.1 523.12L1209.03 522.742C1208.76 522.097 1208.62 521.34 1208.62 520.456H1207.62H1206.62C1206.62 521.556 1206.8 522.575 1207.18 523.498L1208.1 523.12ZM1207.62 520.456H1208.62C1208.62 518.883 1209.05 517.759 1209.79 516.964L1209.06 516.28L1208.33 515.596C1207.16 516.849 1206.62 518.509 1206.62 520.456H1207.62ZM1209.06 516.28L1209.79 516.967C1210.42 516.297 1211.27 515.936 1212.42 515.936V514.936V513.936C1210.79 513.936 1209.4 514.471 1208.34 515.593L1209.06 516.28ZM1212.42 514.936V515.936C1213.61 515.936 1214.43 516.306 1215.01 516.963L1215.76 516.304L1216.51 515.645C1215.49 514.478 1214.08 513.936 1212.42 513.936V514.936ZM1215.76 516.304L1215.01 516.964C1215.5 517.528 1215.79 518.301 1215.79 519.376H1216.79H1217.79C1217.79 517.923 1217.39 516.648 1216.51 515.644L1215.76 516.304ZM1216.79 519.376H1215.79V521.368H1216.79H1217.79V519.376H1216.79ZM1216.79 521.368H1215.79C1215.79 522.087 1215.93 522.849 1216.45 523.397L1217.17 522.712L1217.9 522.027C1217.91 522.032 1217.88 522.005 1217.85 521.897C1217.82 521.787 1217.79 521.616 1217.79 521.368H1216.79ZM1217.17 522.712L1216.49 523.44C1217.03 523.952 1217.78 524.096 1218.49 524.096V523.096V522.096C1218.26 522.096 1218.09 522.07 1217.99 522.04C1217.94 522.025 1217.9 522.01 1217.88 522C1217.87 521.995 1217.87 521.991 1217.86 521.988C1217.86 521.985 1217.86 521.984 1217.86 521.984L1217.17 522.712ZM1213.77 521.752H1214.77V519.328H1213.77H1212.77V521.752H1213.77ZM1213.77 519.328H1214.77C1214.77 518.682 1214.63 518.012 1214.19 517.493C1213.73 516.943 1213.07 516.744 1212.42 516.744V517.744V518.744C1212.55 518.744 1212.62 518.763 1212.64 518.774C1212.67 518.782 1212.67 518.786 1212.67 518.787C1212.68 518.796 1212.77 518.918 1212.77 519.328H1213.77ZM1212.42 517.744V516.744C1211.53 516.744 1210.77 517.128 1210.24 517.853L1211.05 518.44L1211.86 519.027C1212.01 518.824 1212.16 518.744 1212.42 518.744V517.744ZM1211.05 518.44L1210.23 517.872C1209.75 518.563 1209.57 519.428 1209.57 520.36H1210.57H1211.57C1211.57 519.66 1211.71 519.245 1211.88 519.008L1211.05 518.44ZM1210.57 520.36H1209.57C1209.57 521.35 1209.73 522.266 1210.19 522.962C1210.69 523.73 1211.48 524.096 1212.37 524.096V523.096V522.096C1212.07 522.096 1211.95 522.006 1211.86 521.862C1211.72 521.646 1211.57 521.194 1211.57 520.36H1210.57ZM1212.37 523.096V524.096C1212.98 524.096 1213.63 523.949 1214.11 523.479C1214.61 523.003 1214.77 522.363 1214.77 521.752H1213.77H1212.77C1212.77 522.037 1212.69 522.069 1212.72 522.041C1212.75 522.019 1212.69 522.096 1212.37 522.096V523.096ZM1229.6 523.096H1230.6V522.096H1229.6V523.096ZM1229.6 526V527H1230.6V526H1229.6ZM1224.11 524.944L1224.77 524.2L1224.14 523.634L1223.48 524.163L1224.11 524.944ZM1219.19 526H1218.19V527H1219.19V526ZM1219.19 523.096V522.096H1218.19V523.096H1219.19ZM1222.26 522.616L1221.55 521.909L1221.54 521.918L1221.53 521.927L1222.26 522.616ZM1222.74 512.128L1222.27 511.247L1221.74 511.529V512.128H1222.74ZM1225.74 510.52H1226.74V508.849L1225.27 509.639L1225.74 510.52ZM1225.74 515.368H1224.74V517.782L1226.45 516.075L1225.74 515.368ZM1225.76 515.344H1226.76V512.93L1225.06 514.637L1225.76 515.344ZM1226.15 522.712L1225.42 523.397L1225.43 523.408L1225.44 523.419L1226.15 522.712ZM1227.44 523.096V524.096H1229.6V523.096V522.096H1227.44V523.096ZM1229.6 523.096H1228.6V526H1229.6H1230.6V523.096H1229.6ZM1229.6 526V525H1227.15V526V527H1229.6V526ZM1227.15 526V525C1226.1 525 1225.34 524.71 1224.77 524.2L1224.11 524.944L1223.44 525.688C1224.44 526.586 1225.71 527 1227.15 527V526ZM1224.11 524.944L1223.48 524.163C1222.8 524.706 1221.95 525 1220.87 525V526V527C1222.34 527 1223.65 526.59 1224.73 525.725L1224.11 524.944ZM1220.87 526V525H1219.19V526V527H1220.87V526ZM1219.19 526H1220.19V523.096H1219.19H1218.19V526H1219.19ZM1219.19 523.096V524.096H1220.7V523.096V522.096H1219.19V523.096ZM1220.7 523.096V524.096C1221.53 524.096 1222.4 523.922 1222.98 523.305L1222.26 522.616L1221.53 521.927C1221.51 521.95 1221.33 522.096 1220.7 522.096V523.096ZM1222.26 522.616L1222.97 523.323C1223.57 522.721 1223.74 521.844 1223.74 520.984H1222.74H1221.74C1221.74 521.66 1221.59 521.871 1221.55 521.909L1222.26 522.616ZM1222.74 520.984H1223.74V512.128H1222.74H1221.74V520.984H1222.74ZM1222.74 512.128L1223.21 513.009L1226.21 511.401L1225.74 510.52L1225.27 509.639L1222.27 511.247L1222.74 512.128ZM1225.74 510.52H1224.74V515.368H1225.74H1226.74V510.52H1225.74ZM1225.74 515.368L1226.45 516.075L1226.47 516.051L1225.76 515.344L1225.06 514.637L1225.03 514.661L1225.74 515.368ZM1225.76 515.344H1224.76V521.368H1225.76H1226.76V515.344H1225.76ZM1225.76 521.368H1224.76C1224.76 522.087 1224.9 522.849 1225.42 523.397L1226.15 522.712L1226.87 522.027C1226.88 522.032 1226.85 522.005 1226.82 521.897C1226.79 521.787 1226.76 521.616 1226.76 521.368H1225.76ZM1226.15 522.712L1225.44 523.419C1225.98 523.956 1226.74 524.096 1227.44 524.096V523.096V522.096C1227.2 522.096 1227.04 522.07 1226.95 522.041C1226.85 522.013 1226.84 521.99 1226.85 522.005L1226.15 522.712ZM1245.83 523.096H1246.83V522.096H1245.83V523.096ZM1245.83 526V527H1246.83V526H1245.83ZM1240.74 525.592L1240.38 526.526L1240.39 526.53L1240.4 526.535L1240.74 525.592ZM1238.63 524.104L1239.36 523.422L1238.79 522.816L1238.09 523.259L1238.63 524.104ZM1228.16 526H1227.16V527H1228.16V526ZM1228.16 523.096V522.096H1227.16V523.096H1228.16ZM1238.46 520.576L1239.17 521.28L1239.7 520.74L1239.33 520.08L1238.46 520.576ZM1230.3 519.808H1229.3V522.08L1230.97 520.545L1230.3 519.808ZM1230.3 517.144L1229.56 516.47L1229.3 516.756V517.144H1230.3ZM1241.65 520.192H1242.65V519.938L1242.53 519.715L1241.65 520.192ZM1241.65 521.392L1242.45 521.998L1242.65 521.73V521.392H1241.65ZM1240.64 522.52L1239.94 521.813L1239.03 522.719L1240.13 523.377L1240.64 522.52ZM1243.81 523.096V524.096H1245.83V523.096V522.096H1243.81V523.096ZM1245.83 523.096H1244.83V526H1245.83H1246.83V523.096H1245.83ZM1245.83 526V525H1243.79V526V527H1245.83V526ZM1243.79 526V525C1242.58 525 1241.69 524.868 1241.07 524.649L1240.74 525.592L1240.4 526.535C1241.32 526.86 1242.46 527 1243.79 527V526ZM1240.74 525.592L1241.1 524.658C1240.51 524.434 1239.93 524.036 1239.36 523.422L1238.63 524.104L1237.9 524.786C1238.64 525.58 1239.46 526.174 1240.38 526.526L1240.74 525.592ZM1238.63 524.104L1238.09 523.259C1236.27 524.411 1234.15 525 1231.71 525V526V527C1234.49 527 1236.99 526.325 1239.16 524.949L1238.63 524.104ZM1231.71 526V525H1228.16V526V527H1231.71V526ZM1228.16 526H1229.16V523.096H1228.16H1227.16V526H1228.16ZM1228.16 523.096V524.096H1231.74V523.096V522.096H1228.16V523.096ZM1231.74 523.096V524.096C1234.77 524.096 1237.28 523.185 1239.17 521.28L1238.46 520.576L1237.75 519.872C1236.31 521.327 1234.34 522.096 1231.74 522.096V523.096ZM1238.46 520.576L1239.33 520.08C1238.14 518.008 1236.55 516.72 1234.5 516.72V517.72V518.72C1235.55 518.72 1236.6 519.336 1237.59 521.072L1238.46 520.576ZM1234.5 517.72V516.72C1232.85 516.72 1231.22 517.607 1229.62 519.071L1230.3 519.808L1230.97 520.545C1232.42 519.225 1233.58 518.72 1234.5 518.72V517.72ZM1230.3 519.808H1231.3V517.144H1230.3H1229.3V519.808H1230.3ZM1230.3 517.144L1231.04 517.818C1232.23 516.514 1233.49 515.936 1234.86 515.936V514.936V513.936C1232.83 513.936 1231.06 514.83 1229.56 516.47L1230.3 517.144ZM1234.86 514.936V515.936C1235.84 515.936 1236.85 516.291 1237.9 517.096L1238.51 516.304L1239.12 515.512C1237.79 514.493 1236.37 513.936 1234.86 513.936V514.936ZM1238.51 516.304L1237.9 517.096C1238.94 517.903 1239.91 519.079 1240.77 520.669L1241.65 520.192L1242.53 519.715C1241.57 517.945 1240.44 516.529 1239.12 515.512L1238.51 516.304ZM1241.65 520.192H1240.65V521.392H1241.65H1242.65V520.192H1241.65ZM1241.65 521.392L1240.86 520.786C1240.63 521.076 1240.33 521.417 1239.94 521.813L1240.64 522.52L1241.35 523.227C1241.79 522.791 1242.15 522.38 1242.45 521.998L1241.65 521.392ZM1240.64 522.52L1240.13 523.377C1241.01 523.908 1242.3 524.096 1243.81 524.096V523.096V522.096C1242.37 522.096 1241.55 521.9 1241.16 521.663L1240.64 522.52ZM1244.38 526H1243.38V527H1244.38V526ZM1244.38 523.096V522.096H1243.38V523.096H1244.38ZM1247.45 522.616L1246.75 521.909L1246.74 521.918L1246.73 521.927L1247.45 522.616ZM1247.93 512.128L1247.46 511.247L1246.93 511.529V512.128H1247.93ZM1250.93 510.52H1251.93V508.849L1250.46 509.639L1250.93 510.52ZM1249.52 524.728L1250.22 525.442L1250.22 525.441L1249.52 524.728ZM1244.38 526H1245.38V523.096H1244.38H1243.38V526H1244.38ZM1244.38 523.096V524.096H1245.89V523.096V522.096H1244.38V523.096ZM1245.89 523.096V524.096C1246.73 524.096 1247.59 523.922 1248.18 523.305L1247.45 522.616L1246.73 521.927C1246.71 521.95 1246.53 522.096 1245.89 522.096V523.096ZM1247.45 522.616L1248.16 523.323C1248.76 522.721 1248.93 521.844 1248.93 520.984H1247.93H1246.93C1246.93 521.66 1246.78 521.871 1246.75 521.909L1247.45 522.616ZM1247.93 520.984H1248.93V512.128H1247.93H1246.93V520.984H1247.93ZM1247.93 512.128L1248.41 513.009L1251.41 511.401L1250.93 510.52L1250.46 509.639L1247.46 511.247L1247.93 512.128ZM1250.93 510.52H1249.93V521.008H1250.93H1251.93V510.52H1250.93ZM1250.93 521.008H1249.93C1249.93 522.342 1249.54 523.307 1248.82 524.015L1249.52 524.728L1250.22 525.441C1251.39 524.293 1251.93 522.778 1251.93 521.008H1250.93ZM1249.52 524.728L1248.82 524.014C1248.17 524.645 1247.29 525 1246.06 525V526V527C1247.71 527 1249.13 526.507 1250.22 525.442L1249.52 524.728ZM1246.06 526V525H1244.38V526V527H1246.06V526ZM1255.25 526H1254.25V527H1255.25V526ZM1255.25 512.128L1254.78 511.245L1254.25 511.527V512.128H1255.25ZM1258.28 510.52H1259.28V508.856L1257.81 509.637L1258.28 510.52ZM1258.28 526V527H1259.28V526H1258.28ZM1255.25 526H1256.25V512.128H1255.25H1254.25V526H1255.25ZM1255.25 512.128L1255.72 513.011L1258.75 511.403L1258.28 510.52L1257.81 509.637L1254.78 511.245L1255.25 512.128ZM1258.28 510.52H1257.28V526H1258.28H1259.28V510.52H1258.28ZM1258.28 526V525H1255.25V526V527H1258.28V526ZM1267.44 509.176L1266.57 508.693L1265.75 510.176H1267.44V509.176ZM1268.21 507.784V506.784H1267.62L1267.34 507.301L1268.21 507.784ZM1268.93 507.784V508.784H1270.62L1269.81 507.302L1268.93 507.784ZM1269.22 505.48L1268.53 504.758L1268.52 504.765L1268.51 504.773L1269.22 505.48ZM1271.93 505.432H1272.93V504.954L1272.56 504.654L1271.93 505.432ZM1271.93 506.824L1271.27 507.577L1272.93 509.028V506.824H1271.93ZM1270.3 507.784L1269.52 508.415L1269.82 508.784H1270.3V507.784ZM1272.68 507.784L1273.55 508.267L1274.37 506.784H1272.68V507.784ZM1271.91 509.176V510.176H1272.5L1272.78 509.659L1271.91 509.176ZM1268.36 526H1267.36V527H1268.36V526ZM1268.36 512.128L1267.89 511.245L1267.36 511.527V512.128H1268.36ZM1271.38 510.52H1272.38V508.856L1270.91 509.637L1271.38 510.52ZM1271.38 526V527H1272.38V526H1271.38ZM1267.44 509.176L1268.32 509.659L1269.09 508.267L1268.21 507.784L1267.34 507.301L1266.57 508.693L1267.44 509.176ZM1268.21 507.784V508.784H1268.93V507.784V506.784H1268.21V507.784ZM1268.93 507.784L1269.81 507.302C1269.71 507.117 1269.67 506.953 1269.67 506.8H1268.67H1267.67C1267.67 507.319 1267.81 507.811 1268.06 508.266L1268.93 507.784ZM1268.67 506.8H1269.67C1269.67 506.558 1269.74 506.371 1269.93 506.187L1269.22 505.48L1268.51 504.773C1267.96 505.325 1267.67 506.018 1267.67 506.8H1268.67ZM1269.22 505.48L1269.91 506.202C1270.11 506.011 1270.32 505.928 1270.59 505.928V504.928V503.928C1269.8 503.928 1269.1 504.213 1268.53 504.758L1269.22 505.48ZM1270.59 504.928V505.928C1270.81 505.928 1271.04 506 1271.3 506.21L1271.93 505.432L1272.56 504.654C1271.99 504.192 1271.32 503.928 1270.59 503.928V504.928ZM1271.93 505.432H1270.93V506.824H1271.93H1272.93V505.432H1271.93ZM1271.93 506.824L1272.59 506.071C1272.08 505.629 1271.48 505.32 1270.78 505.32V506.32V507.32C1270.85 507.32 1271.01 507.347 1271.27 507.577L1271.93 506.824ZM1270.78 506.32V505.32C1270.38 505.32 1269.9 505.408 1269.51 505.76C1269.11 506.129 1268.99 506.62 1268.99 507.04H1269.99H1270.99C1270.99 507.009 1270.99 507.025 1270.98 507.069C1270.96 507.119 1270.92 507.183 1270.86 507.24C1270.73 507.352 1270.65 507.32 1270.78 507.32V506.32ZM1269.99 507.04H1268.99C1268.99 507.583 1269.22 508.047 1269.52 508.415L1270.3 507.784L1271.08 507.153C1271.02 507.083 1271 507.038 1270.99 507.019C1270.98 507.003 1270.99 507.012 1270.99 507.04H1269.99ZM1270.3 507.784V508.784H1272.68V507.784V506.784H1270.3V507.784ZM1272.68 507.784L1271.8 507.301L1271.03 508.693L1271.91 509.176L1272.78 509.659L1273.55 508.267L1272.68 507.784ZM1271.91 509.176V508.176H1267.44V509.176V510.176H1271.91V509.176ZM1268.36 526H1269.36V512.128H1268.36H1267.36V526H1268.36ZM1268.36 512.128L1268.82 513.011L1271.85 511.403L1271.38 510.52L1270.91 509.637L1267.89 511.245L1268.36 512.128ZM1271.38 510.52H1270.38V526H1271.38H1272.38V510.52H1271.38ZM1271.38 526V525H1268.36V526V527H1271.38V526ZM1273.77 526L1272.88 525.538L1272.12 527H1273.77V526ZM1275.28 523.096V522.096H1274.68L1274.4 522.634L1275.28 523.096ZM1277.76 517.624L1276.89 517.123L1276.38 518.003L1277.27 518.498L1277.76 517.624ZM1279.24 515.056L1279.75 514.192L1278.88 513.687L1278.38 514.555L1279.24 515.056ZM1283.28 520.984L1282.28 521.061L1282.28 521.064L1283.28 520.984ZM1283.8 522.64L1283.08 523.328L1283.09 523.338L1283.1 523.347L1283.8 522.64ZM1287.16 523.096H1288.16V522.096H1287.16V523.096ZM1287.16 526V527H1288.16V526H1287.16ZM1282.17 525.016L1282.8 524.237L1282.06 523.645L1281.43 524.346L1282.17 525.016ZM1273.77 526L1274.66 526.462L1276.17 523.558L1275.28 523.096L1274.4 522.634L1272.88 525.538L1273.77 526ZM1275.28 523.096V524.096H1279.08V523.096V522.096H1275.28V523.096ZM1279.08 523.096V524.096C1279.68 524.096 1280.3 523.915 1280.75 523.396C1281.17 522.905 1281.3 522.273 1281.3 521.68H1280.3H1279.3C1279.3 522.031 1279.22 522.107 1279.24 522.088C1279.25 522.075 1279.26 522.071 1279.25 522.074C1279.24 522.08 1279.19 522.096 1279.08 522.096V523.096ZM1280.3 521.68H1281.3C1281.3 519.514 1280.21 517.849 1278.24 516.75L1277.76 517.624L1277.27 518.498C1278.69 519.287 1279.3 520.326 1279.3 521.68H1280.3ZM1277.76 517.624L1278.62 518.125L1280.11 515.557L1279.24 515.056L1278.38 514.555L1276.89 517.123L1277.76 517.624ZM1279.24 515.056L1278.74 515.92C1281 517.24 1282.12 518.946 1282.28 521.061L1283.28 520.984L1284.27 520.907C1284.05 518.03 1282.48 515.784 1279.75 514.192L1279.24 515.056ZM1283.28 520.984L1282.28 521.064C1282.35 521.912 1282.54 522.763 1283.08 523.328L1283.8 522.64L1284.53 521.952C1284.49 521.909 1284.33 521.656 1284.27 520.904L1283.28 520.984ZM1283.8 522.64L1283.1 523.347C1283.68 523.931 1284.52 524.096 1285.34 524.096V523.096V522.096C1284.72 522.096 1284.53 521.957 1284.51 521.933L1283.8 522.64ZM1285.34 523.096V524.096H1287.16V523.096V522.096H1285.34V523.096ZM1287.16 523.096H1286.16V526H1287.16H1288.16V523.096H1287.16ZM1287.16 526V525H1285.17V526V527H1287.16V526ZM1285.17 526V525C1284.18 525 1283.41 524.731 1282.8 524.237L1282.17 525.016L1281.54 525.795C1282.56 526.613 1283.79 527 1285.17 527V526ZM1282.17 525.016L1281.43 524.346C1281.07 524.742 1280.52 525 1279.63 525V526V527C1280.94 527 1282.09 526.602 1282.91 525.686L1282.17 525.016ZM1279.63 526V525H1273.77V526V527H1279.63V526ZM1296.43 523.096H1297.43V522.096H1296.43V523.096ZM1296.43 526V527H1297.43V526H1296.43ZM1291.08 525.064L1291.71 524.288L1291.08 523.776L1290.45 524.288L1291.08 525.064ZM1285.73 526H1284.73V527H1285.73V526ZM1285.73 523.096V522.096H1284.73V523.096H1285.73ZM1289.18 522.712L1289.89 523.419L1289.9 523.408L1289.91 523.397L1289.18 522.712ZM1289.57 516.928L1289.1 516.042L1288.57 516.323V516.928H1289.57ZM1292.59 515.344H1293.59V513.691L1292.13 514.458L1292.59 515.344ZM1292.97 522.712L1292.25 523.397L1292.26 523.408L1292.27 523.419L1292.97 522.712ZM1292.35 528.592L1291.64 529.299L1292.35 528.592ZM1290.07 530.92L1289.36 531.627L1290.07 530.92ZM1294.27 523.096V524.096H1296.43V523.096V522.096H1294.27V523.096ZM1296.43 523.096H1295.43V526H1296.43H1297.43V523.096H1296.43ZM1296.43 526V525H1293.98V526V527H1296.43V526ZM1293.98 526V525C1293 525 1292.27 524.742 1291.71 524.288L1291.08 525.064L1290.45 525.84C1291.42 526.634 1292.63 527 1293.98 527V526ZM1291.08 525.064L1290.45 524.288C1289.89 524.742 1289.15 525 1288.17 525V526V527C1289.53 527 1290.73 526.634 1291.71 525.84L1291.08 525.064ZM1288.17 526V525H1285.73V526V527H1288.17V526ZM1285.73 526H1286.73V523.096H1285.73H1284.73V526H1285.73ZM1285.73 523.096V524.096H1287.89V523.096V522.096H1285.73V523.096ZM1287.89 523.096V524.096C1288.59 524.096 1289.35 523.956 1289.89 523.419L1289.18 522.712L1288.47 522.005C1288.49 521.99 1288.48 522.013 1288.38 522.041C1288.28 522.07 1288.12 522.096 1287.89 522.096V523.096ZM1289.18 522.712L1289.91 523.397C1290.43 522.849 1290.57 522.087 1290.57 521.368H1289.57H1288.57C1288.57 521.616 1288.54 521.787 1288.51 521.897C1288.48 522.005 1288.45 522.032 1288.45 522.027L1289.18 522.712ZM1289.57 521.368H1290.57V516.928H1289.57H1288.57V521.368H1289.57ZM1289.57 516.928L1290.03 517.814L1293.05 516.23L1292.59 515.344L1292.13 514.458L1289.1 516.042L1289.57 516.928ZM1292.59 515.344H1291.59V521.368H1292.59H1293.59V515.344H1292.59ZM1292.59 521.368H1291.59C1291.59 522.087 1291.73 522.849 1292.25 523.397L1292.97 522.712L1293.7 522.027C1293.71 522.032 1293.68 522.005 1293.65 521.897C1293.62 521.787 1293.59 521.616 1293.59 521.368H1292.59ZM1292.97 522.712L1292.27 523.419C1292.8 523.956 1293.57 524.096 1294.27 524.096V523.096V522.096C1294.03 522.096 1293.87 522.07 1293.77 522.041C1293.68 522.013 1293.67 521.99 1293.68 522.005L1292.97 522.712ZM1291.22 528.184V529.184C1291.51 529.184 1291.6 529.259 1291.64 529.299L1292.35 528.592L1293.06 527.885C1292.55 527.381 1291.9 527.184 1291.22 527.184V528.184ZM1292.35 528.592L1291.64 529.299C1291.71 529.366 1291.78 529.478 1291.78 529.744H1292.78H1293.78C1293.78 529.05 1293.57 528.394 1293.06 527.885L1292.35 528.592ZM1292.78 529.744H1291.78C1291.78 530.133 1291.69 530.24 1291.67 530.254C1291.67 530.261 1291.58 530.352 1291.22 530.352V531.352V532.352C1291.9 532.352 1292.6 532.175 1293.11 531.646C1293.62 531.124 1293.78 530.427 1293.78 529.744H1292.78ZM1291.22 531.352V530.352C1290.96 530.352 1290.84 530.28 1290.78 530.213L1290.07 530.92L1289.36 531.627C1289.87 532.136 1290.53 532.352 1291.22 532.352V531.352ZM1290.07 530.92L1290.78 530.213C1290.72 530.152 1290.64 530.036 1290.64 529.744H1289.64H1288.64C1288.64 530.444 1288.85 531.112 1289.36 531.627L1290.07 530.92ZM1289.64 529.744H1290.64C1290.64 529.505 1290.7 529.397 1290.78 529.323L1290.07 528.616L1289.36 527.909C1288.86 528.411 1288.64 529.055 1288.64 529.744H1289.64ZM1290.07 528.616L1290.78 529.323C1290.84 529.256 1290.96 529.184 1291.22 529.184V528.184V527.184C1290.53 527.184 1289.87 527.4 1289.36 527.909L1290.07 528.616ZM1299.26 512.488L1298.55 513.195L1299.26 512.488ZM1299.26 510.184L1298.55 509.477V509.477L1299.26 510.184ZM1301.54 510.184L1300.81 510.871L1300.83 510.891L1300.85 510.911L1301.54 510.184ZM1294.98 526H1293.98V527H1294.98V526ZM1294.98 523.096V522.096H1293.98V523.096H1294.98ZM1298.44 522.712L1299.15 523.419L1299.16 523.408L1299.17 523.397L1298.44 522.712ZM1298.82 516.928L1298.36 516.042L1297.82 516.323V516.928H1298.82ZM1301.85 515.344H1302.85V513.691L1301.38 514.458L1301.85 515.344ZM1300.5 524.92L1299.83 524.181L1299.83 524.183L1300.5 524.92ZM1300.41 512.92V511.92C1300.14 511.92 1300.03 511.848 1299.96 511.781L1299.26 512.488L1298.55 513.195C1299.06 513.704 1299.71 513.92 1300.41 513.92V512.92ZM1299.26 512.488L1299.96 511.781C1299.9 511.72 1299.82 511.604 1299.82 511.312H1298.82H1297.82C1297.82 512.012 1298.03 512.68 1298.55 513.195L1299.26 512.488ZM1298.82 511.312H1299.82C1299.82 511.073 1299.89 510.965 1299.96 510.891L1299.26 510.184L1298.55 509.477C1298.05 509.979 1297.82 510.623 1297.82 511.312H1298.82ZM1299.26 510.184L1299.96 510.891C1300.03 510.824 1300.14 510.752 1300.41 510.752V509.752V508.752C1299.71 508.752 1299.06 508.968 1298.55 509.477L1299.26 510.184ZM1300.41 509.752V510.752C1300.67 510.752 1300.76 510.824 1300.81 510.871L1301.54 510.184L1302.26 509.497C1301.76 508.968 1301.1 508.752 1300.41 508.752V509.752ZM1301.54 510.184L1300.85 510.911C1300.9 510.955 1300.97 511.044 1300.97 511.312H1301.97H1302.97C1302.97 510.62 1302.75 509.957 1302.22 509.457L1301.54 510.184ZM1301.97 511.312H1300.97C1300.97 511.701 1300.87 511.808 1300.86 511.822C1300.85 511.829 1300.77 511.92 1300.41 511.92V512.92V513.92C1301.09 513.92 1301.78 513.743 1302.29 513.214C1302.8 512.692 1302.97 511.995 1302.97 511.312H1301.97ZM1294.98 526H1295.98V523.096H1294.98H1293.98V526H1294.98ZM1294.98 523.096V524.096H1297.14V523.096V522.096H1294.98V523.096ZM1297.14 523.096V524.096C1297.85 524.096 1298.61 523.956 1299.15 523.419L1298.44 522.712L1297.73 522.005C1297.75 521.99 1297.73 522.013 1297.64 522.041C1297.54 522.07 1297.38 522.096 1297.14 522.096V523.096ZM1298.44 522.712L1299.17 523.397C1299.68 522.849 1299.82 522.087 1299.82 521.368H1298.82H1297.82C1297.82 521.616 1297.8 521.787 1297.77 521.897C1297.73 522.005 1297.71 522.032 1297.71 522.027L1298.44 522.712ZM1298.82 521.368H1299.82V516.928H1298.82H1297.82V521.368H1298.82ZM1298.82 516.928L1299.29 517.814L1302.31 516.23L1301.85 515.344L1301.38 514.458L1298.36 516.042L1298.82 516.928ZM1301.85 515.344H1300.85V521.512H1301.85H1302.85V515.344H1301.85ZM1301.85 521.512H1300.85C1300.85 522.748 1300.48 523.592 1299.83 524.181L1300.5 524.92L1301.18 525.659C1302.32 524.616 1302.85 523.188 1302.85 521.512H1301.85ZM1300.5 524.92L1299.83 524.183C1299.26 524.703 1298.49 525 1297.43 525V526V527C1298.9 527 1300.18 526.577 1301.18 525.657L1300.5 524.92ZM1297.43 526V525H1294.98V526V527H1297.43V526Z" fill="#FF7500" mask="url(#path-6-outside-1_414_23)"/>
<circle cx="75" cy="75" r="72.5" stroke="#FF7500" stroke-width="5"/>
<circle cx="75" cy="75" r="62.9041" fill="#FF7500" stroke="#FF7500" stroke-width="4.19178"/>
<mask id="path-10-outside-2_414_23" maskUnits="userSpaceOnUse" x="13" y="60" width="121" height="25" fill="black">
<rect fill="white" x="13" y="60" width="121" height="25"/>
<path d="M21.0825 64.92C20.6025 64.92 20.2185 64.776 19.9305 64.488C19.6425 64.2 19.4985 63.808 19.4985 63.312C19.4985 62.848 19.6425 62.472 19.9305 62.184C20.2185 61.896 20.6025 61.752 21.0825 61.752C21.5625 61.752 21.9385 61.896 22.2105 62.184C22.4985 62.456 22.6425 62.832 22.6425 63.312C22.6425 64.384 22.1225 64.92 21.0825 64.92ZM22.6425 76.512C22.6425 78.368 22.1305 79.872 21.1065 81.024C20.1625 82.096 18.9145 82.632 17.3625 82.632C16.3545 82.632 15.3705 82.376 14.4105 81.864V79.224C15.2425 79.688 16.0585 79.92 16.8585 79.92C17.7385 79.92 18.4185 79.632 18.8985 79.056C19.3945 78.496 19.6425 77.712 19.6425 76.704V68.952L22.6425 67.344V76.512ZM30.4269 78C28.9709 78 27.8429 77.536 27.0429 76.608C26.3549 75.808 26.0109 74.776 26.0109 73.512V64.104L29.0349 62.52V73.368C29.0349 73.992 29.1629 74.44 29.4189 74.712C29.6749 74.968 30.1069 75.096 30.7149 75.096H32.8749V78H30.4269ZM46.1158 75.096H48.1318V78H46.0918C44.8278 78 43.8118 77.864 43.0438 77.592C42.2918 77.304 41.5878 76.808 40.9318 76.104C38.9318 77.368 36.6278 78 34.0198 78H30.4678V75.096H34.0438C36.8598 75.096 39.0998 74.256 40.7638 72.576C39.6758 70.672 38.3558 69.72 36.8038 69.72C35.5238 69.72 34.1238 70.416 32.6038 71.808V69.144C33.9478 67.672 35.4678 66.936 37.1638 66.936C38.4118 66.936 39.6278 67.392 40.8118 68.304C41.9958 69.216 43.0438 70.512 43.9558 72.192V73.392C43.6998 73.728 43.3638 74.104 42.9478 74.52C43.5878 74.904 44.6438 75.096 46.1158 75.096ZM39.4678 80.184C39.9478 80.184 40.3238 80.32 40.5958 80.592C40.8838 80.88 41.0278 81.264 41.0278 81.744C41.0278 82.816 40.5078 83.352 39.4678 83.352C38.9878 83.352 38.6038 83.208 38.3158 82.92C38.0278 82.632 37.8838 82.24 37.8838 81.744C37.8838 81.28 38.0278 80.904 38.3158 80.616C38.6038 80.328 38.9878 80.184 39.4678 80.184ZM51.1506 64.92C50.6706 64.92 50.2866 64.776 49.9986 64.488C49.7106 64.2 49.5666 63.808 49.5666 63.312C49.5666 62.848 49.7106 62.472 49.9986 62.184C50.2866 61.896 50.6706 61.752 51.1506 61.752C51.6306 61.752 52.0066 61.896 52.2786 62.184C52.5666 62.456 52.7106 62.832 52.7106 63.312C52.7106 64.384 52.1906 64.92 51.1506 64.92ZM45.7266 78V75.096H47.8866C48.4946 75.096 48.9266 74.968 49.1826 74.712C49.4386 74.44 49.5666 73.992 49.5666 73.368V68.928L52.5906 67.344V73.512C52.5906 74.968 52.1426 76.104 51.2466 76.92C50.4626 77.64 49.4386 78 48.1746 78H45.7266ZM65.1834 64.128L68.2074 62.52V73.008C68.2074 74.56 67.7354 75.8 66.7914 76.728C65.9114 77.576 64.7514 78 63.3114 78H54.2634L55.7754 75.096H58.9434V67.248L61.9674 65.64V75.096H63.1434C63.8794 75.096 64.3994 74.936 64.7034 74.616C65.0234 74.296 65.1834 73.752 65.1834 72.984V64.128ZM62.2074 81.192C61.8234 80.856 61.4394 80.688 61.0554 80.688C60.5274 80.688 60.2634 80.928 60.2634 81.408C60.2634 81.648 60.3674 81.896 60.5754 82.152H62.9514L62.1834 83.544H57.7194L58.4874 82.152H59.2074C59.0314 81.832 58.9434 81.504 58.9434 81.168C58.9434 80.656 59.1274 80.216 59.4954 79.848C59.8794 79.48 60.3354 79.296 60.8634 79.296C61.3434 79.296 61.7914 79.464 62.2074 79.8V81.192ZM71.5537 78V64.128L74.5777 62.52V78H71.5537ZM90.8233 65.232C90.3433 65.232 89.9593 65.088 89.6713 64.8C89.3833 64.512 89.2393 64.12 89.2393 63.624C89.2393 62.584 89.7673 62.064 90.8233 62.064C91.3033 62.064 91.6793 62.208 91.9513 62.496C92.2393 62.768 92.3833 63.144 92.3833 63.624C92.3833 64.696 91.8633 65.232 90.8233 65.232ZM94.5193 65.232C94.0393 65.232 93.6553 65.088 93.3673 64.8C93.0793 64.512 92.9353 64.12 92.9353 63.624C92.9353 62.584 93.4633 62.064 94.5193 62.064C94.9993 62.064 95.3753 62.208 95.6473 62.496C95.9353 62.768 96.0793 63.144 96.0793 63.624C96.0793 64.696 95.5593 65.232 94.5193 65.232ZM97.1833 78C96.8633 79.552 96.0153 80.72 94.6393 81.504C93.3753 82.208 91.7433 82.56 89.7433 82.56C87.0873 82.56 85.0873 81.8 83.7433 80.28C82.7513 79.144 82.2553 77.752 82.2553 76.104C82.2553 74.84 82.5513 73.736 83.1433 72.792L86.0233 72.192C85.3833 73.28 85.0633 74.424 85.0633 75.624C85.0633 76.888 85.4633 77.872 86.2633 78.576C87.0633 79.296 88.2233 79.656 89.7433 79.656C92.0633 79.656 93.4633 79.064 93.9433 77.88L93.5113 77.832C91.6873 77.64 90.3113 77.008 89.3833 75.936C88.5833 75.024 88.1833 73.864 88.1833 72.456C88.1833 70.696 88.6633 69.304 89.6233 68.28C90.4713 67.384 91.5913 66.936 92.9833 66.936C94.4073 66.936 95.5193 67.392 96.3193 68.304C97.0073 69.088 97.3513 70.112 97.3513 71.376V75.096H100.279V78H97.1833ZM94.3273 75.048V71.328C94.3273 70.272 93.8793 69.744 92.9833 69.744C92.4073 69.744 91.9513 69.976 91.6153 70.44C91.2953 70.904 91.1353 71.544 91.1353 72.36C91.1353 73.944 91.9833 74.808 93.6793 74.952L94.3273 75.048ZM103.664 65.232C103.184 65.232 102.8 65.088 102.512 64.8C102.224 64.512 102.08 64.12 102.08 63.624C102.08 62.584 102.608 62.064 103.664 62.064C104.144 62.064 104.52 62.208 104.792 62.496C105.08 62.768 105.224 63.144 105.224 63.624C105.224 64.696 104.704 65.232 103.664 65.232ZM107.36 65.232C106.88 65.232 106.496 65.088 106.208 64.8C105.92 64.512 105.776 64.12 105.776 63.624C105.776 62.584 106.304 62.064 107.36 62.064C107.84 62.064 108.216 62.208 108.488 62.496C108.776 62.768 108.92 63.144 108.92 63.624C108.92 64.696 108.4 65.232 107.36 65.232ZM109.328 75.096H113.12V78H107.432C106.616 78 105.976 77.944 105.512 77.832C105.016 77.944 104.376 78 103.592 78H97.8797V75.096H101.672C101.064 74.12 100.76 73.128 100.76 72.12C100.76 70.52 101.232 69.232 102.176 68.256C103.024 67.376 104.136 66.936 105.512 66.936C107.08 66.936 108.296 67.504 109.16 68.64C109.88 69.568 110.24 70.728 110.24 72.12C110.24 73.128 109.936 74.12 109.328 75.096ZM105.488 74.832C106.032 74.576 106.472 74.184 106.808 73.656C107.16 73.112 107.336 72.544 107.336 71.952C107.336 71.264 107.168 70.728 106.832 70.344C106.512 69.944 106.072 69.744 105.512 69.744C104.296 69.744 103.688 70.472 103.688 71.928C103.688 72.552 103.856 73.136 104.192 73.68C104.528 74.208 104.96 74.592 105.488 74.832ZM126.372 75.096H128.388V78H126.348C125.084 78 124.068 77.864 123.3 77.592C122.548 77.304 121.844 76.808 121.188 76.104C119.188 77.368 116.884 78 114.276 78H110.724V75.096H114.3C117.116 75.096 119.356 74.256 121.02 72.576C119.932 70.672 118.612 69.72 117.06 69.72C115.78 69.72 114.38 70.416 112.86 71.808V69.144C114.204 67.672 115.724 66.936 117.42 66.936C118.668 66.936 119.884 67.392 121.068 68.304C122.252 69.216 123.3 70.512 124.212 72.192V73.392C123.956 73.728 123.62 74.104 123.204 74.52C123.844 74.904 124.9 75.096 126.372 75.096ZM131.407 64.92C130.927 64.92 130.543 64.776 130.255 64.488C129.967 64.2 129.823 63.808 129.823 63.312C129.823 62.848 129.967 62.472 130.255 62.184C130.543 61.896 130.927 61.752 131.407 61.752C131.887 61.752 132.263 61.896 132.535 62.184C132.823 62.456 132.967 62.832 132.967 63.312C132.967 64.384 132.447 64.92 131.407 64.92ZM125.983 78V75.096H128.143C128.751 75.096 129.183 74.968 129.439 74.712C129.695 74.44 129.823 73.992 129.823 73.368V68.928L132.847 67.344V73.512C132.847 74.968 132.399 76.104 131.503 76.92C130.719 77.64 129.695 78 128.431 78H125.983Z"/>
</mask>
<path d="M21.0825 64.92C20.6025 64.92 20.2185 64.776 19.9305 64.488C19.6425 64.2 19.4985 63.808 19.4985 63.312C19.4985 62.848 19.6425 62.472 19.9305 62.184C20.2185 61.896 20.6025 61.752 21.0825 61.752C21.5625 61.752 21.9385 61.896 22.2105 62.184C22.4985 62.456 22.6425 62.832 22.6425 63.312C22.6425 64.384 22.1225 64.92 21.0825 64.92ZM22.6425 76.512C22.6425 78.368 22.1305 79.872 21.1065 81.024C20.1625 82.096 18.9145 82.632 17.3625 82.632C16.3545 82.632 15.3705 82.376 14.4105 81.864V79.224C15.2425 79.688 16.0585 79.92 16.8585 79.92C17.7385 79.92 18.4185 79.632 18.8985 79.056C19.3945 78.496 19.6425 77.712 19.6425 76.704V68.952L22.6425 67.344V76.512ZM30.4269 78C28.9709 78 27.8429 77.536 27.0429 76.608C26.3549 75.808 26.0109 74.776 26.0109 73.512V64.104L29.0349 62.52V73.368C29.0349 73.992 29.1629 74.44 29.4189 74.712C29.6749 74.968 30.1069 75.096 30.7149 75.096H32.8749V78H30.4269ZM46.1158 75.096H48.1318V78H46.0918C44.8278 78 43.8118 77.864 43.0438 77.592C42.2918 77.304 41.5878 76.808 40.9318 76.104C38.9318 77.368 36.6278 78 34.0198 78H30.4678V75.096H34.0438C36.8598 75.096 39.0998 74.256 40.7638 72.576C39.6758 70.672 38.3558 69.72 36.8038 69.72C35.5238 69.72 34.1238 70.416 32.6038 71.808V69.144C33.9478 67.672 35.4678 66.936 37.1638 66.936C38.4118 66.936 39.6278 67.392 40.8118 68.304C41.9958 69.216 43.0438 70.512 43.9558 72.192V73.392C43.6998 73.728 43.3638 74.104 42.9478 74.52C43.5878 74.904 44.6438 75.096 46.1158 75.096ZM39.4678 80.184C39.9478 80.184 40.3238 80.32 40.5958 80.592C40.8838 80.88 41.0278 81.264 41.0278 81.744C41.0278 82.816 40.5078 83.352 39.4678 83.352C38.9878 83.352 38.6038 83.208 38.3158 82.92C38.0278 82.632 37.8838 82.24 37.8838 81.744C37.8838 81.28 38.0278 80.904 38.3158 80.616C38.6038 80.328 38.9878 80.184 39.4678 80.184ZM51.1506 64.92C50.6706 64.92 50.2866 64.776 49.9986 64.488C49.7106 64.2 49.5666 63.808 49.5666 63.312C49.5666 62.848 49.7106 62.472 49.9986 62.184C50.2866 61.896 50.6706 61.752 51.1506 61.752C51.6306 61.752 52.0066 61.896 52.2786 62.184C52.5666 62.456 52.7106 62.832 52.7106 63.312C52.7106 64.384 52.1906 64.92 51.1506 64.92ZM45.7266 78V75.096H47.8866C48.4946 75.096 48.9266 74.968 49.1826 74.712C49.4386 74.44 49.5666 73.992 49.5666 73.368V68.928L52.5906 67.344V73.512C52.5906 74.968 52.1426 76.104 51.2466 76.92C50.4626 77.64 49.4386 78 48.1746 78H45.7266ZM65.1834 64.128L68.2074 62.52V73.008C68.2074 74.56 67.7354 75.8 66.7914 76.728C65.9114 77.576 64.7514 78 63.3114 78H54.2634L55.7754 75.096H58.9434V67.248L61.9674 65.64V75.096H63.1434C63.8794 75.096 64.3994 74.936 64.7034 74.616C65.0234 74.296 65.1834 73.752 65.1834 72.984V64.128ZM62.2074 81.192C61.8234 80.856 61.4394 80.688 61.0554 80.688C60.5274 80.688 60.2634 80.928 60.2634 81.408C60.2634 81.648 60.3674 81.896 60.5754 82.152H62.9514L62.1834 83.544H57.7194L58.4874 82.152H59.2074C59.0314 81.832 58.9434 81.504 58.9434 81.168C58.9434 80.656 59.1274 80.216 59.4954 79.848C59.8794 79.48 60.3354 79.296 60.8634 79.296C61.3434 79.296 61.7914 79.464 62.2074 79.8V81.192ZM71.5537 78V64.128L74.5777 62.52V78H71.5537ZM90.8233 65.232C90.3433 65.232 89.9593 65.088 89.6713 64.8C89.3833 64.512 89.2393 64.12 89.2393 63.624C89.2393 62.584 89.7673 62.064 90.8233 62.064C91.3033 62.064 91.6793 62.208 91.9513 62.496C92.2393 62.768 92.3833 63.144 92.3833 63.624C92.3833 64.696 91.8633 65.232 90.8233 65.232ZM94.5193 65.232C94.0393 65.232 93.6553 65.088 93.3673 64.8C93.0793 64.512 92.9353 64.12 92.9353 63.624C92.9353 62.584 93.4633 62.064 94.5193 62.064C94.9993 62.064 95.3753 62.208 95.6473 62.496C95.9353 62.768 96.0793 63.144 96.0793 63.624C96.0793 64.696 95.5593 65.232 94.5193 65.232ZM97.1833 78C96.8633 79.552 96.0153 80.72 94.6393 81.504C93.3753 82.208 91.7433 82.56 89.7433 82.56C87.0873 82.56 85.0873 81.8 83.7433 80.28C82.7513 79.144 82.2553 77.752 82.2553 76.104C82.2553 74.84 82.5513 73.736 83.1433 72.792L86.0233 72.192C85.3833 73.28 85.0633 74.424 85.0633 75.624C85.0633 76.888 85.4633 77.872 86.2633 78.576C87.0633 79.296 88.2233 79.656 89.7433 79.656C92.0633 79.656 93.4633 79.064 93.9433 77.88L93.5113 77.832C91.6873 77.64 90.3113 77.008 89.3833 75.936C88.5833 75.024 88.1833 73.864 88.1833 72.456C88.1833 70.696 88.6633 69.304 89.6233 68.28C90.4713 67.384 91.5913 66.936 92.9833 66.936C94.4073 66.936 95.5193 67.392 96.3193 68.304C97.0073 69.088 97.3513 70.112 97.3513 71.376V75.096H100.279V78H97.1833ZM94.3273 75.048V71.328C94.3273 70.272 93.8793 69.744 92.9833 69.744C92.4073 69.744 91.9513 69.976 91.6153 70.44C91.2953 70.904 91.1353 71.544 91.1353 72.36C91.1353 73.944 91.9833 74.808 93.6793 74.952L94.3273 75.048ZM103.664 65.232C103.184 65.232 102.8 65.088 102.512 64.8C102.224 64.512 102.08 64.12 102.08 63.624C102.08 62.584 102.608 62.064 103.664 62.064C104.144 62.064 104.52 62.208 104.792 62.496C105.08 62.768 105.224 63.144 105.224 63.624C105.224 64.696 104.704 65.232 103.664 65.232ZM107.36 65.232C106.88 65.232 106.496 65.088 106.208 64.8C105.92 64.512 105.776 64.12 105.776 63.624C105.776 62.584 106.304 62.064 107.36 62.064C107.84 62.064 108.216 62.208 108.488 62.496C108.776 62.768 108.92 63.144 108.92 63.624C108.92 64.696 108.4 65.232 107.36 65.232ZM109.328 75.096H113.12V78H107.432C106.616 78 105.976 77.944 105.512 77.832C105.016 77.944 104.376 78 103.592 78H97.8797V75.096H101.672C101.064 74.12 100.76 73.128 100.76 72.12C100.76 70.52 101.232 69.232 102.176 68.256C103.024 67.376 104.136 66.936 105.512 66.936C107.08 66.936 108.296 67.504 109.16 68.64C109.88 69.568 110.24 70.728 110.24 72.12C110.24 73.128 109.936 74.12 109.328 75.096ZM105.488 74.832C106.032 74.576 106.472 74.184 106.808 73.656C107.16 73.112 107.336 72.544 107.336 71.952C107.336 71.264 107.168 70.728 106.832 70.344C106.512 69.944 106.072 69.744 105.512 69.744C104.296 69.744 103.688 70.472 103.688 71.928C103.688 72.552 103.856 73.136 104.192 73.68C104.528 74.208 104.96 74.592 105.488 74.832ZM126.372 75.096H128.388V78H126.348C125.084 78 124.068 77.864 123.3 77.592C122.548 77.304 121.844 76.808 121.188 76.104C119.188 77.368 116.884 78 114.276 78H110.724V75.096H114.3C117.116 75.096 119.356 74.256 121.02 72.576C119.932 70.672 118.612 69.72 117.06 69.72C115.78 69.72 114.38 70.416 112.86 71.808V69.144C114.204 67.672 115.724 66.936 117.42 66.936C118.668 66.936 119.884 67.392 121.068 68.304C122.252 69.216 123.3 70.512 124.212 72.192V73.392C123.956 73.728 123.62 74.104 123.204 74.52C123.844 74.904 124.9 75.096 126.372 75.096ZM131.407 64.92C130.927 64.92 130.543 64.776 130.255 64.488C129.967 64.2 129.823 63.808 129.823 63.312C129.823 62.848 129.967 62.472 130.255 62.184C130.543 61.896 130.927 61.752 131.407 61.752C131.887 61.752 132.263 61.896 132.535 62.184C132.823 62.456 132.967 62.832 132.967 63.312C132.967 64.384 132.447 64.92 131.407 64.92ZM125.983 78V75.096H128.143C128.751 75.096 129.183 74.968 129.439 74.712C129.695 74.44 129.823 73.992 129.823 73.368V68.928L132.847 67.344V73.512C132.847 74.968 132.399 76.104 131.503 76.92C130.719 77.64 129.695 78 128.431 78H125.983Z" fill="white"/>
<path d="M19.9305 64.488L19.2234 65.1951H19.2234L19.9305 64.488ZM19.9305 62.184L19.2234 61.4769L19.2234 61.4769L19.9305 62.184ZM22.2105 62.184L21.4835 62.8706L21.5031 62.8914L21.5239 62.911L22.2105 62.184ZM21.1065 81.024L20.3591 80.3596L20.356 80.3631L21.1065 81.024ZM14.4105 81.864H13.4105V82.464L13.9399 82.7464L14.4105 81.864ZM14.4105 79.224L14.8976 78.3506L13.4105 77.5213V79.224H14.4105ZM18.8985 79.056L18.1499 78.393L18.1399 78.4042L18.1303 78.4158L18.8985 79.056ZM19.6425 68.952L19.1701 68.0706L18.6425 68.3534V68.952H19.6425ZM22.6425 67.344H23.6425V65.6734L22.1701 66.4626L22.6425 67.344ZM21.0825 64.92V63.92C20.8168 63.92 20.7049 63.8482 20.6376 63.7809L19.9305 64.488L19.2234 65.1951C19.7321 65.7038 20.3882 65.92 21.0825 65.92V64.92ZM19.9305 64.488L20.6376 63.7809C20.5766 63.7199 20.4985 63.6043 20.4985 63.312H19.4985H18.4985C18.4985 64.0117 18.7084 64.6801 19.2234 65.1951L19.9305 64.488ZM19.4985 63.312H20.4985C20.4985 63.0731 20.5637 62.965 20.6376 62.8911L19.9305 62.184L19.2234 61.4769C18.7212 61.979 18.4985 62.6229 18.4985 63.312H19.4985ZM19.9305 62.184L20.6376 62.8911C20.7049 62.8238 20.8168 62.752 21.0825 62.752V61.752V60.752C20.3882 60.752 19.7321 60.9682 19.2234 61.4769L19.9305 62.184ZM21.0825 61.752V62.752C21.3501 62.752 21.4395 62.8241 21.4835 62.8706L22.2105 62.184L22.9375 61.4974C22.4375 60.9679 21.7749 60.752 21.0825 60.752V61.752ZM22.2105 62.184L21.5239 62.911C21.5704 62.955 21.6425 63.0444 21.6425 63.312H22.6425H23.6425C23.6425 62.6196 23.4266 61.957 22.8971 61.457L22.2105 62.184ZM22.6425 63.312H21.6425C21.6425 63.7013 21.5478 63.8083 21.5348 63.8217C21.5272 63.8295 21.4405 63.92 21.0825 63.92V64.92V65.92C21.7645 65.92 22.4578 65.7425 22.9702 65.2143C23.4772 64.6917 23.6425 63.9947 23.6425 63.312H22.6425ZM22.6425 76.512H21.6425C21.6425 78.1756 21.1886 79.4265 20.3591 80.3596L21.1065 81.024L21.8539 81.6884C23.0724 80.3175 23.6425 78.5604 23.6425 76.512H22.6425ZM21.1065 81.024L20.356 80.3631C19.6196 81.1994 18.6552 81.632 17.3625 81.632V82.632V83.632C19.1738 83.632 20.7054 82.9926 21.857 81.6849L21.1065 81.024ZM17.3625 82.632V81.632C16.5315 81.632 15.708 81.4227 14.8811 80.9816L14.4105 81.864L13.9399 82.7464C15.0329 83.3293 16.1775 83.632 17.3625 83.632V82.632ZM14.4105 81.864H15.4105V79.224H14.4105H13.4105V81.864H14.4105ZM14.4105 79.224L13.9234 80.0974C14.8759 80.6286 15.8582 80.92 16.8585 80.92V79.92V78.92C16.2588 78.92 15.6091 78.7474 14.8976 78.3506L14.4105 79.224ZM16.8585 79.92V80.92C17.978 80.92 18.9629 80.5408 19.6667 79.6962L18.8985 79.056L18.1303 78.4158C17.8741 78.7232 17.499 78.92 16.8585 78.92V79.92ZM18.8985 79.056L19.6471 79.719C20.3541 78.9208 20.6425 77.8705 20.6425 76.704H19.6425H18.6425C18.6425 77.5535 18.4349 78.0712 18.1499 78.393L18.8985 79.056ZM19.6425 76.704H20.6425V68.952H19.6425H18.6425V76.704H19.6425ZM19.6425 68.952L20.1149 69.8334L23.1149 68.2254L22.6425 67.344L22.1701 66.4626L19.1701 68.0706L19.6425 68.952ZM22.6425 67.344H21.6425V76.512H22.6425H23.6425V67.344H22.6425ZM27.0429 76.608L26.2847 77.26L26.2855 77.2609L27.0429 76.608ZM26.0109 64.104L25.5469 63.2182L25.0109 63.4989V64.104H26.0109ZM29.0349 62.52H30.0349V60.8673L28.5709 61.6342L29.0349 62.52ZM29.4189 74.712L28.6907 75.3974L28.7011 75.4084L28.7118 75.4191L29.4189 74.712ZM32.8749 75.096H33.8749V74.096H32.8749V75.096ZM32.8749 78V79H33.8749V78H32.8749ZM30.4269 78V77C29.2016 77 28.3743 76.6208 27.8003 75.9551L27.0429 76.608L26.2855 77.2609C27.3116 78.4512 28.7403 79 30.4269 79V78ZM27.0429 76.608L27.8011 75.956C27.2987 75.3717 27.0109 74.5863 27.0109 73.512H26.0109H25.0109C25.0109 74.9657 25.4112 76.2443 26.2848 77.26L27.0429 76.608ZM26.0109 73.512H27.0109V64.104H26.0109H25.0109V73.512H26.0109ZM26.0109 64.104L26.4749 64.9898L29.4989 63.4058L29.0349 62.52L28.5709 61.6342L25.5469 63.2182L26.0109 64.104ZM29.0349 62.52H28.0349V73.368H29.0349H30.0349V62.52H29.0349ZM29.0349 73.368H28.0349C28.0349 74.0868 28.1749 74.8493 28.6907 75.3974L29.4189 74.712L30.1471 74.0266C30.1523 74.0322 30.1232 74.005 30.0925 73.8973C30.061 73.787 30.0349 73.6164 30.0349 73.368H29.0349ZM29.4189 74.712L28.7118 75.4191C29.2485 75.9558 30.0115 76.096 30.7149 76.096V75.096V74.096C30.4759 74.096 30.317 74.0702 30.219 74.0412C30.1243 74.0131 30.1108 73.9896 30.126 74.0049L29.4189 74.712ZM30.7149 75.096V76.096H32.8749V75.096V74.096H30.7149V75.096ZM32.8749 75.096H31.8749V78H32.8749H33.8749V75.096H32.8749ZM32.8749 78V77H30.4269V78V79H32.8749V78ZM48.1318 75.096H49.1318V74.096H48.1318V75.096ZM48.1318 78V79H49.1318V78H48.1318ZM43.0438 77.592L42.6862 78.5259L42.698 78.5304L42.71 78.5346L43.0438 77.592ZM40.9318 76.104L41.6634 75.4223L41.0983 74.8158L40.3976 75.2587L40.9318 76.104ZM30.4678 78H29.4678V79H30.4678V78ZM30.4678 75.096V74.096H29.4678V75.096H30.4678ZM40.7638 72.576L41.4743 73.2797L42.0091 72.7397L41.6321 72.0799L40.7638 72.576ZM32.6038 71.808H31.6038V74.0798L33.2792 72.5455L32.6038 71.808ZM32.6038 69.144L31.8653 68.4697L31.6038 68.7562V69.144H32.6038ZM43.9558 72.192H44.9558V71.9381L44.8347 71.7149L43.9558 72.192ZM43.9558 73.392L44.7512 73.998L44.9558 73.7295V73.392H43.9558ZM42.9478 74.52L42.2407 73.8129L41.3351 74.7185L42.4333 75.3775L42.9478 74.52ZM40.5958 80.592L39.8887 81.2991L40.5958 80.592ZM38.3158 82.92L37.6087 83.6271L38.3158 82.92ZM46.1158 75.096V76.096H48.1318V75.096V74.096H46.1158V75.096ZM48.1318 75.096H47.1318V78H48.1318H49.1318V75.096H48.1318ZM48.1318 78V77H46.0918V78V79H48.1318V78ZM46.0918 78V77C44.8859 77 43.9962 76.8685 43.3777 76.6494L43.0438 77.592L42.71 78.5346C43.6274 78.8596 44.7697 79 46.0918 79V78ZM43.0438 77.592L43.4015 76.6581C42.8168 76.4342 42.2356 76.0363 41.6634 75.4223L40.9318 76.104L40.2002 76.7857C40.94 77.5797 41.7668 78.1738 42.6862 78.5259L43.0438 77.592ZM40.9318 76.104L40.3976 75.2587C38.5736 76.4114 36.4587 77 34.0198 77V78V79C36.7969 79 39.2901 78.3246 41.4661 76.9493L40.9318 76.104ZM34.0198 78V77H30.4678V78V79H34.0198V78ZM30.4678 78H31.4678V75.096H30.4678H29.4678V78H30.4678ZM30.4678 75.096V76.096H34.0438V75.096V74.096H30.4678V75.096ZM34.0438 75.096V76.096C37.0719 76.096 39.5872 75.185 41.4743 73.2797L40.7638 72.576L40.0533 71.8723C38.6124 73.327 36.6477 74.096 34.0438 74.096V75.096ZM40.7638 72.576L41.6321 72.0799C40.4481 70.0079 38.854 68.72 36.8038 68.72V69.72V70.72C37.8576 70.72 38.9036 71.3361 39.8956 73.0721L40.7638 72.576ZM36.8038 69.72V68.72C35.1594 68.72 33.5262 69.6073 31.9284 71.0705L32.6038 71.808L33.2792 72.5455C34.7214 71.2247 35.8882 70.72 36.8038 70.72V69.72ZM32.6038 71.808H33.6038V69.144H32.6038H31.6038V71.808H32.6038ZM32.6038 69.144L33.3423 69.8183C34.5331 68.514 35.7985 67.936 37.1638 67.936V66.936V65.936C35.1371 65.936 33.3625 66.83 31.8653 68.4697L32.6038 69.144ZM37.1638 66.936V67.936C38.1499 67.936 39.1568 68.2915 40.2016 69.0962L40.8118 68.304L41.422 67.5118C40.0988 66.4925 38.6737 65.936 37.1638 65.936V66.936ZM40.8118 68.304L40.2016 69.0962C41.2488 69.9028 42.2137 71.0788 43.077 72.6691L43.9558 72.192L44.8347 71.7149C43.874 69.9452 42.7428 68.5292 41.422 67.5118L40.8118 68.304ZM43.9558 72.192H42.9558V73.392H43.9558H44.9558V72.192H43.9558ZM43.9558 73.392L43.1604 72.786C42.9397 73.0756 42.6363 73.4173 42.2407 73.8129L42.9478 74.52L43.6549 75.2271C44.0913 74.7907 44.4599 74.3804 44.7512 73.998L43.9558 73.392ZM42.9478 74.52L42.4333 75.3775C43.3183 75.9085 44.6078 76.096 46.1158 76.096V75.096V74.096C44.6798 74.096 43.8573 73.8995 43.4623 73.6625L42.9478 74.52ZM39.4678 80.184V81.184C39.7521 81.184 39.8482 81.2586 39.8887 81.2991L40.5958 80.592L41.3029 79.8849C40.7994 79.3814 40.1436 79.184 39.4678 79.184V80.184ZM40.5958 80.592L39.8887 81.2991C39.956 81.3664 40.0278 81.4783 40.0278 81.744H41.0278H42.0278C42.0278 81.0497 41.8117 80.3936 41.3029 79.8849L40.5958 80.592ZM41.0278 81.744H40.0278C40.0278 82.1333 39.9331 82.2403 39.9201 82.2537C39.9125 82.2615 39.8258 82.352 39.4678 82.352V83.352V84.352C40.1498 84.352 40.8431 84.1745 41.3555 83.6463C41.8625 83.1237 42.0278 82.4267 42.0278 81.744H41.0278ZM39.4678 83.352V82.352C39.2021 82.352 39.0902 82.2802 39.0229 82.2129L38.3158 82.92L37.6087 83.6271C38.1174 84.1358 38.7736 84.352 39.4678 84.352V83.352ZM38.3158 82.92L39.0229 82.2129C38.9619 82.1519 38.8838 82.0363 38.8838 81.744H37.8838H36.8838C36.8838 82.4437 37.0937 83.1121 37.6087 83.6271L38.3158 82.92ZM37.8838 81.744H38.8838C38.8838 81.5051 38.9491 81.397 39.0229 81.3231L38.3158 80.616L37.6087 79.9089C37.1066 80.411 36.8838 81.0549 36.8838 81.744H37.8838ZM38.3158 80.616L39.0229 81.3231C39.0902 81.2558 39.2021 81.184 39.4678 81.184V80.184V79.184C38.7736 79.184 38.1174 79.4002 37.6087 79.9089L38.3158 80.616ZM49.9986 64.488L49.2915 65.1951L49.9986 64.488ZM49.9986 62.184L49.2915 61.4769V61.4769L49.9986 62.184ZM52.2786 62.184L51.5515 62.8706L51.5712 62.8914L51.5919 62.911L52.2786 62.184ZM45.7266 78H44.7266V79H45.7266V78ZM45.7266 75.096V74.096H44.7266V75.096H45.7266ZM49.1826 74.712L49.8897 75.4191L49.9004 75.4084L49.9108 75.3974L49.1826 74.712ZM49.5666 68.928L49.1026 68.0422L48.5666 68.3229V68.928H49.5666ZM52.5906 67.344H53.5906V65.6913L52.1266 66.4582L52.5906 67.344ZM51.2466 76.92L50.5732 76.1807L50.5702 76.1835L51.2466 76.92ZM51.1506 64.92V63.92C50.8848 63.92 50.7729 63.8482 50.7057 63.7809L49.9986 64.488L49.2915 65.1951C49.8002 65.7038 50.4563 65.92 51.1506 65.92V64.92ZM49.9986 64.488L50.7057 63.7809C50.6446 63.7199 50.5666 63.6043 50.5666 63.312H49.5666H48.5666C48.5666 64.0117 48.7765 64.6801 49.2915 65.1951L49.9986 64.488ZM49.5666 63.312H50.5666C50.5666 63.0731 50.6318 62.965 50.7057 62.8911L49.9986 62.184L49.2915 61.4769C48.7893 61.979 48.5666 62.6229 48.5666 63.312H49.5666ZM49.9986 62.184L50.7057 62.8911C50.7729 62.8238 50.8848 62.752 51.1506 62.752V61.752V60.752C50.4563 60.752 49.8002 60.9682 49.2915 61.4769L49.9986 62.184ZM51.1506 61.752V62.752C51.4181 62.752 51.5076 62.8241 51.5515 62.8706L52.2786 62.184L53.0056 61.4974C52.5055 60.9679 51.843 60.752 51.1506 60.752V61.752ZM52.2786 62.184L51.5919 62.911C51.6385 62.955 51.7106 63.0444 51.7106 63.312H52.7106H53.7106C53.7106 62.6196 53.4946 61.957 52.9652 61.457L52.2786 62.184ZM52.7106 63.312H51.7106C51.7106 63.7013 51.6158 63.8083 51.6028 63.8217C51.5953 63.8295 51.5086 63.92 51.1506 63.92V64.92V65.92C51.8325 65.92 52.5259 65.7425 53.0383 65.2143C53.5453 64.6917 53.7106 63.9947 53.7106 63.312H52.7106ZM45.7266 78H46.7266V75.096H45.7266H44.7266V78H45.7266ZM45.7266 75.096V76.096H47.8866V75.096V74.096H45.7266V75.096ZM47.8866 75.096V76.096C48.59 76.096 49.353 75.9558 49.8897 75.4191L49.1826 74.712L48.4755 74.0049C48.4907 73.9896 48.4772 74.0131 48.3825 74.0412C48.2845 74.0702 48.1256 74.096 47.8866 74.096V75.096ZM49.1826 74.712L49.9108 75.3974C50.4266 74.8493 50.5666 74.0868 50.5666 73.368H49.5666H48.5666C48.5666 73.6164 48.5405 73.787 48.509 73.8973C48.4783 74.005 48.4492 74.0322 48.4544 74.0266L49.1826 74.712ZM49.5666 73.368H50.5666V68.928H49.5666H48.5666V73.368H49.5666ZM49.5666 68.928L50.0306 69.8138L53.0546 68.2298L52.5906 67.344L52.1266 66.4582L49.1026 68.0422L49.5666 68.928ZM52.5906 67.344H51.5906V73.512H52.5906H53.5906V67.344H52.5906ZM52.5906 73.512H51.5906C51.5906 74.7481 51.2196 75.592 50.5732 76.1807L51.2466 76.92L51.9199 77.6593C53.0655 76.616 53.5906 75.1879 53.5906 73.512H52.5906ZM51.2466 76.92L50.5702 76.1835C50.0043 76.7031 49.2378 77 48.1746 77V78V79C49.6393 79 50.9208 78.5769 51.923 77.6565L51.2466 76.92ZM48.1746 78V77H45.7266V78V79H48.1746V78ZM65.1834 64.128L64.7139 63.2451L64.1834 63.5272V64.128H65.1834ZM68.2074 62.52H69.2074V60.8557L67.7379 61.6371L68.2074 62.52ZM66.7914 76.728L67.4854 77.4481L67.4925 77.4411L66.7914 76.728ZM54.2634 78L53.3765 77.5382L52.6153 79H54.2634V78ZM55.7754 75.096V74.096H55.1687L54.8885 74.6342L55.7754 75.096ZM58.9434 75.096V76.096H59.9434V75.096H58.9434ZM58.9434 67.248L58.4739 66.3651L57.9434 66.6472V67.248H58.9434ZM61.9674 65.64H62.9674V63.9757L61.4979 64.7571L61.9674 65.64ZM61.9674 75.096H60.9674V76.096H61.9674V75.096ZM64.7034 74.616L63.9963 73.9089L63.9873 73.918L63.9784 73.9273L64.7034 74.616ZM62.2074 81.192L61.5489 81.9446L63.2074 83.3958V81.192H62.2074ZM60.5754 82.152L59.7993 82.7826L60.0995 83.152H60.5754V82.152ZM62.9514 82.152L63.827 82.6351L64.6453 81.152H62.9514V82.152ZM62.1834 83.544V84.544H62.7738L63.059 84.0271L62.1834 83.544ZM57.7194 83.544L56.8439 83.0609L56.0256 84.544H57.7194V83.544ZM58.4874 82.152V81.152H57.8971L57.6119 81.6689L58.4874 82.152ZM59.2074 82.152V83.152H60.8987L60.0837 81.6701L59.2074 82.152ZM59.4954 79.848L58.8035 79.126L58.7959 79.1334L58.7883 79.1409L59.4954 79.848ZM62.2074 79.8H63.2074V79.3222L62.8358 79.0221L62.2074 79.8ZM65.1834 64.128L65.6529 65.0109L68.6769 63.4029L68.2074 62.52L67.7379 61.6371L64.7139 63.2451L65.1834 64.128ZM68.2074 62.52H67.2074V73.008H68.2074H69.2074V62.52H68.2074ZM68.2074 73.008H67.2074C67.2074 74.3418 66.8102 75.3072 66.0904 76.0149L66.7914 76.728L67.4925 77.4411C68.6606 76.2928 69.2074 74.7782 69.2074 73.008H68.2074ZM66.7914 76.728L66.0975 76.0079C65.4367 76.6448 64.542 77 63.3114 77V78V79C64.9608 79 66.3862 78.5072 67.4853 77.4481L66.7914 76.728ZM63.3114 78V77H54.2634V78V79H63.3114V78ZM54.2634 78L55.1504 78.4618L56.6624 75.5578L55.7754 75.096L54.8885 74.6342L53.3765 77.5382L54.2634 78ZM55.7754 75.096V76.096H58.9434V75.096V74.096H55.7754V75.096ZM58.9434 75.096H59.9434V67.248H58.9434H57.9434V75.096H58.9434ZM58.9434 67.248L59.4129 68.1309L62.4369 66.5229L61.9674 65.64L61.4979 64.7571L58.4739 66.3651L58.9434 67.248ZM61.9674 65.64H60.9674V75.096H61.9674H62.9674V65.64H61.9674ZM61.9674 75.096V76.096H63.1434V75.096V74.096H61.9674V75.096ZM63.1434 75.096V76.096C63.9792 76.096 64.8422 75.9218 65.4284 75.3047L64.7034 74.616L63.9784 73.9273C63.9567 73.9502 63.7796 74.096 63.1434 74.096V75.096ZM64.7034 74.616L65.4105 75.3231C66.0127 74.7209 66.1834 73.8438 66.1834 72.984H65.1834H64.1834C64.1834 73.6602 64.0342 73.8711 63.9963 73.9089L64.7034 74.616ZM65.1834 72.984H66.1834V64.128H65.1834H64.1834V72.984H65.1834ZM62.2074 81.192L62.8659 80.4394C62.3604 79.9971 61.7518 79.688 61.0554 79.688V80.688V81.688C61.1271 81.688 61.2864 81.7149 61.5489 81.9446L62.2074 81.192ZM61.0554 80.688V79.688C60.6596 79.688 60.1761 79.7759 59.7888 80.1281C59.3833 80.4966 59.2634 80.988 59.2634 81.408H60.2634H61.2634C61.2634 81.3771 61.268 81.3932 61.2518 81.4373C61.2335 81.4871 61.1963 81.5514 61.1341 81.6079C61.0107 81.7201 60.9233 81.688 61.0554 81.688V80.688ZM60.2634 81.408H59.2634C59.2634 81.9505 59.5003 82.4146 59.7993 82.7826L60.5754 82.152L61.3516 81.5214C61.2946 81.4513 61.2716 81.4062 61.2636 81.3873C61.2568 81.371 61.2634 81.3801 61.2634 81.408H60.2634ZM60.5754 82.152V83.152H62.9514V82.152V81.152H60.5754V82.152ZM62.9514 82.152L62.0759 81.6689L61.3079 83.0609L62.1834 83.544L63.059 84.0271L63.827 82.6351L62.9514 82.152ZM62.1834 83.544V82.544H57.7194V83.544V84.544H62.1834V83.544ZM57.7194 83.544L58.595 84.0271L59.363 82.6351L58.4874 82.152L57.6119 81.6689L56.8439 83.0609L57.7194 83.544ZM58.4874 82.152V83.152H59.2074V82.152V81.152H58.4874V82.152ZM59.2074 82.152L60.0837 81.6701C59.9816 81.4846 59.9434 81.3211 59.9434 81.168H58.9434H57.9434C57.9434 81.6869 58.0813 82.1794 58.3312 82.6339L59.2074 82.152ZM58.9434 81.168H59.9434C59.9434 80.9261 60.0186 80.739 60.2025 80.5551L59.4954 79.848L58.7883 79.1409C58.2363 79.693 57.9434 80.3859 57.9434 81.168H58.9434ZM59.4954 79.848L60.1873 80.57C60.3867 80.3789 60.5954 80.296 60.8634 80.296V79.296V78.296C60.0755 78.296 59.3722 78.5811 58.8035 79.126L59.4954 79.848ZM60.8634 79.296V80.296C61.0885 80.296 61.3195 80.3682 61.5791 80.5779L62.2074 79.8L62.8358 79.0221C62.2634 78.5598 61.5983 78.296 60.8634 78.296V79.296ZM62.2074 79.8H61.2074V81.192H62.2074H63.2074V79.8H62.2074ZM71.5537 78H70.5537V79H71.5537V78ZM71.5537 64.128L71.0843 63.2451L70.5537 63.5272V64.128H71.5537ZM74.5778 62.52H75.5778V60.8557L74.1083 61.6371L74.5778 62.52ZM74.5778 78V79H75.5778V78H74.5778ZM71.5537 78H72.5537V64.128H71.5537H70.5537V78H71.5537ZM71.5537 64.128L72.0232 65.0109L75.0472 63.4029L74.5778 62.52L74.1083 61.6371L71.0843 63.2451L71.5537 64.128ZM74.5778 62.52H73.5778V78H74.5778H75.5778V62.52H74.5778ZM74.5778 78V77H71.5537V78V79H74.5778V78ZM89.6713 64.8L88.9642 65.5071V65.5071L89.6713 64.8ZM91.9513 62.496L91.2243 63.1826L91.2439 63.2034L91.2647 63.223L91.9513 62.496ZM93.3673 64.8L94.0744 64.0929V64.0929L93.3673 64.8ZM95.6473 62.496L94.9203 63.1826L94.9399 63.2034L94.9607 63.223L95.6473 62.496ZM97.1833 78V77H96.3685L96.2039 77.7981L97.1833 78ZM94.6393 81.504L95.1259 82.3777L95.1344 82.3729L94.6393 81.504ZM83.7433 80.28L82.9901 80.9378L82.9942 80.9424L83.7433 80.28ZM83.1433 72.792L82.9394 71.813L82.5224 71.8999L82.2961 72.2607L83.1433 72.792ZM86.0233 72.192L86.8852 72.699L88.0303 70.7524L85.8194 71.213L86.0233 72.192ZM86.2633 78.576L86.9323 77.8327L86.9239 77.8253L86.2633 78.576ZM93.9433 77.88L94.87 78.2557L95.3662 77.0319L94.0537 76.8861L93.9433 77.88ZM93.5113 77.832L93.6217 76.8381L93.616 76.8375L93.5113 77.832ZM89.3833 75.936L90.1394 75.2815L90.1351 75.2766L89.3833 75.936ZM89.6233 68.28L88.897 67.5926L88.8938 67.5961L89.6233 68.28ZM96.3193 68.304L95.5676 68.9634L95.5677 68.9636L96.3193 68.304ZM97.3513 75.096H96.3513V76.096H97.3513V75.096ZM100.279 75.096H101.279V74.096H100.279V75.096ZM100.279 78V79H101.279V78H100.279ZM94.3273 75.048L94.1808 76.0372L95.3273 76.2071V75.048H94.3273ZM91.6153 70.44L90.8054 69.8535L90.7986 69.8628L90.7921 69.8723L91.6153 70.44ZM93.6793 74.952L93.8259 73.9628L93.795 73.9582L93.7639 73.9556L93.6793 74.952ZM90.8233 65.232V64.232C90.5576 64.232 90.4457 64.1602 90.3784 64.0929L89.6713 64.8L88.9642 65.5071C89.4729 66.0158 90.1291 66.232 90.8233 66.232V65.232ZM89.6713 64.8L90.3784 64.0929C90.3174 64.0319 90.2393 63.9163 90.2393 63.624H89.2393H88.2393C88.2393 64.3237 88.4492 64.9921 88.9642 65.5071L89.6713 64.8ZM89.2393 63.624H90.2393C90.2393 63.262 90.33 63.1734 90.337 63.1665C90.3468 63.1568 90.4456 63.064 90.8233 63.064V62.064V61.064C90.145 61.064 89.4518 61.2312 88.9336 61.7415C88.4126 62.2546 88.2393 62.946 88.2393 63.624H89.2393ZM90.8233 62.064V63.064C91.0909 63.064 91.1803 63.1361 91.2243 63.1826L91.9513 62.496L92.6783 61.8094C92.1783 61.2799 91.5157 61.064 90.8233 61.064V62.064ZM91.9513 62.496L91.2647 63.223C91.3112 63.267 91.3833 63.3564 91.3833 63.624H92.3833H93.3833C93.3833 62.9316 93.1674 62.269 92.6379 61.769L91.9513 62.496ZM92.3833 63.624H91.3833C91.3833 64.0133 91.2886 64.1203 91.2756 64.1337C91.268 64.1415 91.1813 64.232 90.8233 64.232V65.232V66.232C91.5053 66.232 92.1986 66.0545 92.7111 65.5263C93.218 65.0037 93.3833 64.3067 93.3833 63.624H92.3833ZM94.5193 65.232V64.232C94.2536 64.232 94.1417 64.1602 94.0744 64.0929L93.3673 64.8L92.6602 65.5071C93.1689 66.0158 93.8251 66.232 94.5193 66.232V65.232ZM93.3673 64.8L94.0744 64.0929C94.0134 64.0319 93.9353 63.9163 93.9353 63.624H92.9353H91.9353C91.9353 64.3237 92.1452 64.9921 92.6602 65.5071L93.3673 64.8ZM92.9353 63.624H93.9353C93.9353 63.262 94.026 63.1734 94.033 63.1665C94.0428 63.1568 94.1416 63.064 94.5193 63.064V62.064V61.064C93.841 61.064 93.1478 61.2312 92.6296 61.7415C92.1086 62.2546 91.9353 62.946 91.9353 63.624H92.9353ZM94.5193 62.064V63.064C94.7869 63.064 94.8763 63.1361 94.9203 63.1826L95.6473 62.496L96.3743 61.8094C95.8743 61.2799 95.2117 61.064 94.5193 61.064V62.064ZM95.6473 62.496L94.9607 63.223C95.0072 63.267 95.0793 63.3564 95.0793 63.624H96.0793H97.0793C97.0793 62.9316 96.8634 62.269 96.3339 61.769L95.6473 62.496ZM96.0793 63.624H95.0793C95.0793 64.0133 94.9846 64.1203 94.9716 64.1337C94.964 64.1415 94.8773 64.232 94.5193 64.232V65.232V66.232C95.2013 66.232 95.8946 66.0545 96.4071 65.5263C96.914 65.0037 97.0793 64.3067 97.0793 63.624H96.0793ZM97.1833 78L96.2039 77.7981C95.9419 79.0687 95.2703 79.9936 94.1443 80.6351L94.6393 81.504L95.1344 82.3729C96.7604 81.4464 97.7847 80.0353 98.1627 78.2019L97.1833 78ZM94.6393 81.504L94.1527 80.6304C93.0836 81.2258 91.635 81.56 89.7433 81.56V82.56V83.56C91.8517 83.56 93.667 83.1902 95.1259 82.3776L94.6393 81.504ZM89.7433 82.56V81.56C87.2799 81.56 85.5922 80.8614 84.4925 79.6176L83.7433 80.28L82.9942 80.9424C84.5824 82.7386 86.8947 83.56 89.7433 83.56V82.56ZM83.7433 80.28L84.4965 79.6222C83.6789 78.6859 83.2553 77.5343 83.2553 76.104H82.2553H81.2553C81.2553 77.9697 81.8238 79.6021 82.9901 80.9378L83.7433 80.28ZM82.2553 76.104H83.2553C83.2553 75.002 83.5113 74.0875 83.9905 73.3233L83.1433 72.792L82.2961 72.2607C81.5913 73.3845 81.2553 74.678 81.2553 76.104H82.2553ZM83.1433 72.792L83.3473 73.771L86.2273 73.171L86.0233 72.192L85.8194 71.213L82.9394 71.813L83.1433 72.792ZM86.0233 72.192L85.1614 71.685C84.4359 72.9183 84.0633 74.2363 84.0633 75.624H85.0633H86.0633C86.0633 74.6117 86.3308 73.6417 86.8852 72.699L86.0233 72.192ZM85.0633 75.624H84.0633C84.0633 77.1167 84.5465 78.3973 85.6027 79.3267L86.2633 78.576L86.9239 77.8253C86.3801 77.3467 86.0633 76.6593 86.0633 75.624H85.0633ZM86.2633 78.576L85.5943 79.3193C86.6415 80.2617 88.0777 80.656 89.7433 80.656V79.656V78.656C88.3689 78.656 87.4851 78.3303 86.9323 77.8327L86.2633 78.576ZM89.7433 79.656V80.656C92.1183 80.656 94.138 80.0615 94.87 78.2557L93.9433 77.88L93.0166 77.5043C92.7887 78.0665 92.0083 78.656 89.7433 78.656V79.656ZM93.9433 77.88L94.0537 76.8861L93.6217 76.8381L93.5113 77.832L93.4009 78.8259L93.8329 78.8739L93.9433 77.88ZM93.5113 77.832L93.616 76.8375C91.9678 76.664 90.8569 76.1104 90.1394 75.2815L89.3833 75.936L88.6273 76.5905C89.7657 77.9056 91.4068 78.616 93.4066 78.8265L93.5113 77.832ZM89.3833 75.936L90.1351 75.2766C89.5204 74.5758 89.1833 73.6627 89.1833 72.456H88.1833H87.1833C87.1833 74.0653 87.6462 75.4722 88.6316 76.5954L89.3833 75.936ZM88.1833 72.456H89.1833C89.1833 70.8827 89.6078 69.7587 90.3528 68.9639L89.6233 68.28L88.8938 67.5961C87.7188 68.8493 87.1833 70.5093 87.1833 72.456H88.1833ZM89.6233 68.28L90.3496 68.9674C90.9836 68.2975 91.8273 67.936 92.9833 67.936V66.936V65.936C91.3553 65.936 89.959 66.4705 88.897 67.5926L89.6233 68.28ZM92.9833 66.936V67.936C94.1745 67.936 94.991 68.3061 95.5676 68.9634L96.3193 68.304L97.0711 67.6446C96.0477 66.4779 94.6401 65.936 92.9833 65.936V66.936ZM96.3193 68.304L95.5677 68.9636C96.0633 69.5284 96.3513 70.3009 96.3513 71.376H97.3513H98.3513C98.3513 69.9231 97.9513 68.6476 97.0709 67.6444L96.3193 68.304ZM97.3513 71.376H96.3513V75.096H97.3513H98.3513V71.376H97.3513ZM97.3513 75.096V76.096H100.279V75.096V74.096H97.3513V75.096ZM100.279 75.096H99.2793V78H100.279H101.279V75.096H100.279ZM100.279 78V77H97.1833V78V79H100.279V78ZM94.3273 75.048H95.3273V71.328H94.3273H93.3273V75.048H94.3273ZM94.3273 71.328H95.3273C95.3273 70.6823 95.1938 70.0116 94.7538 69.493C94.2871 68.943 93.6324 68.744 92.9833 68.744V69.744V70.744C93.1113 70.744 93.1785 70.7631 93.2057 70.7738C93.2268 70.782 93.2283 70.7863 93.2288 70.787C93.2368 70.7964 93.3273 70.9177 93.3273 71.328H94.3273ZM92.9833 69.744V68.744C92.0887 68.744 91.3307 69.1281 90.8054 69.8535L91.6153 70.44L92.4253 71.0265C92.572 70.8239 92.7259 70.744 92.9833 70.744V69.744ZM91.6153 70.44L90.7921 69.8723C90.316 70.5626 90.1353 71.4279 90.1353 72.36H91.1353H92.1353C92.1353 71.6601 92.2746 71.2454 92.4385 71.0077L91.6153 70.44ZM91.1353 72.36H90.1353C90.1353 73.3302 90.3988 74.2252 91.0576 74.8965C91.7061 75.5572 92.6043 75.8643 93.5947 75.9484L93.6793 74.952L93.7639 73.9556C93.0583 73.8957 92.6845 73.6988 92.485 73.4955C92.2959 73.3028 92.1353 72.9738 92.1353 72.36H91.1353ZM93.6793 74.952L93.5328 75.9412L94.1808 76.0372L94.3273 75.048L94.4739 74.0588L93.8259 73.9628L93.6793 74.952ZM102.512 64.8L101.805 65.5071L102.512 64.8ZM104.792 62.496L104.065 63.1826L104.084 63.2034L104.105 63.223L104.792 62.496ZM106.208 64.8L105.501 65.5071V65.5071L106.208 64.8ZM108.488 62.496L107.761 63.1826L107.78 63.2034L107.801 63.223L108.488 62.496ZM109.328 75.096L108.479 74.5673L107.527 76.096H109.328V75.096ZM113.12 75.096H114.12V74.096H113.12V75.096ZM113.12 78V79H114.12V78H113.12ZM105.512 77.832L105.746 76.8599L105.519 76.8051L105.291 76.8566L105.512 77.832ZM97.8797 78H96.8797V79H97.8797V78ZM97.8797 75.096V74.096H96.8797V75.096H97.8797ZM101.672 75.096V76.096H103.473L102.52 74.5673L101.672 75.096ZM102.176 68.256L102.894 68.9512L102.896 68.9499L102.176 68.256ZM109.16 68.64L108.364 69.2454L108.37 69.253L109.16 68.64ZM105.488 74.832L105.074 75.7424L105.495 75.9338L105.913 75.7368L105.488 74.832ZM106.808 73.656L105.968 73.1127L105.964 73.1191L106.808 73.656ZM106.832 70.344L106.051 70.9687L106.065 70.9859L106.079 71.0025L106.832 70.344ZM104.192 73.68L103.341 74.2055L103.348 74.2169L104.192 73.68ZM103.664 65.232V64.232C103.398 64.232 103.286 64.1602 103.219 64.0929L102.512 64.8L101.805 65.5071C102.313 66.0158 102.969 66.232 103.664 66.232V65.232ZM102.512 64.8L103.219 64.0929C103.158 64.0319 103.08 63.9163 103.08 63.624H102.08H101.08C101.08 64.3237 101.29 64.9921 101.805 65.5071L102.512 64.8ZM102.08 63.624H103.08C103.08 63.262 103.17 63.1734 103.177 63.1665C103.187 63.1568 103.286 63.064 103.664 63.064V62.064V61.064C102.985 61.064 102.292 61.2312 101.774 61.7415C101.253 62.2546 101.08 62.946 101.08 63.624H102.08ZM103.664 62.064V63.064C103.931 63.064 104.021 63.1361 104.065 63.1826L104.792 62.496L105.519 61.8094C105.019 61.2799 104.356 61.064 103.664 61.064V62.064ZM104.792 62.496L104.105 63.223C104.152 63.267 104.224 63.3564 104.224 63.624H105.224H106.224C106.224 62.9316 106.008 62.269 105.478 61.769L104.792 62.496ZM105.224 63.624H104.224C104.224 64.0133 104.129 64.1203 104.116 64.1337C104.108 64.1415 104.022 64.232 103.664 64.232V65.232V66.232C104.346 66.232 105.039 66.0545 105.551 65.5263C106.058 65.0037 106.224 64.3067 106.224 63.624H105.224ZM107.36 65.232V64.232C107.094 64.232 106.982 64.1602 106.915 64.0929L106.208 64.8L105.501 65.5071C106.009 66.0158 106.665 66.232 107.36 66.232V65.232ZM106.208 64.8L106.915 64.0929C106.854 64.0319 106.776 63.9163 106.776 63.624H105.776H104.776C104.776 64.3237 104.986 64.9921 105.501 65.5071L106.208 64.8ZM105.776 63.624H106.776C106.776 63.262 106.866 63.1734 106.873 63.1665C106.883 63.1568 106.982 63.064 107.36 63.064V62.064V61.064C106.681 61.064 105.988 61.2312 105.47 61.7415C104.949 62.2546 104.776 62.946 104.776 63.624H105.776ZM107.36 62.064V63.064C107.627 63.064 107.717 63.1361 107.761 63.1826L108.488 62.496L109.215 61.8094C108.715 61.2799 108.052 61.064 107.36 61.064V62.064ZM108.488 62.496L107.801 63.223C107.848 63.267 107.92 63.3564 107.92 63.624H108.92H109.92C109.92 62.9316 109.704 62.269 109.174 61.769L108.488 62.496ZM108.92 63.624H107.92C107.92 64.0133 107.825 64.1203 107.812 64.1337C107.804 64.1415 107.718 64.232 107.36 64.232V65.232V66.232C108.042 66.232 108.735 66.0545 109.247 65.5263C109.754 65.0037 109.92 64.3067 109.92 63.624H108.92ZM109.328 75.096V76.096H113.12V75.096V74.096H109.328V75.096ZM113.12 75.096H112.12V78H113.12H114.12V75.096H113.12ZM113.12 78V77H107.432V78V79H113.12V78ZM107.432 78V77C106.647 77 106.098 76.9448 105.746 76.8599L105.512 77.832L105.277 78.8041C105.853 78.9432 106.584 79 107.432 79V78ZM105.512 77.832L105.291 76.8566C104.895 76.946 104.337 77 103.592 77V78V79C104.415 79 105.136 78.942 105.732 78.8074L105.512 77.832ZM103.592 78V77H97.8797V78V79H103.592V78ZM97.8797 78H98.8797V75.096H97.8797H96.8797V78H97.8797ZM97.8797 75.096V76.096H101.672V75.096V74.096H97.8797V75.096ZM101.672 75.096L102.52 74.5673C101.997 73.727 101.76 72.9159 101.76 72.12H100.76H99.7597C99.7597 73.3401 100.13 74.513 100.823 75.6247L101.672 75.096ZM100.76 72.12H101.76C101.76 70.7299 102.163 69.7079 102.894 68.9512L102.176 68.256L101.457 67.5608C100.301 68.7561 99.7597 70.3101 99.7597 72.12H100.76ZM102.176 68.256L102.896 68.9499C103.531 68.291 104.37 67.936 105.512 67.936V66.936V65.936C103.902 65.936 102.517 66.461 101.456 67.5621L102.176 68.256ZM105.512 66.936V67.936C106.803 67.936 107.709 68.385 108.364 69.2454L109.16 68.64L109.956 68.0346C108.882 66.623 107.357 65.936 105.512 65.936V66.936ZM109.16 68.64L108.37 69.253C108.93 69.9747 109.24 70.9074 109.24 72.12H110.24H111.24C111.24 70.5486 110.83 69.1613 109.95 68.027L109.16 68.64ZM110.24 72.12H109.24C109.24 72.9159 109.002 73.727 108.479 74.5673L109.328 75.096L110.176 75.6247C110.869 74.513 111.24 73.3401 111.24 72.12H110.24ZM105.488 74.832L105.913 75.7368C106.636 75.3968 107.218 74.8737 107.651 74.1929L106.808 73.656L105.964 73.1191C105.725 73.4943 105.427 73.7552 105.062 73.9272L105.488 74.832ZM106.808 73.656L107.647 74.1993C108.094 73.5093 108.336 72.7549 108.336 71.952H107.336H106.336C106.336 72.3331 106.226 72.7147 105.968 73.1127L106.808 73.656ZM107.336 71.952H108.336C108.336 71.1069 108.128 70.307 107.584 69.6855L106.832 70.344L106.079 71.0025C106.207 71.149 106.336 71.4211 106.336 71.952H107.336ZM106.832 70.344L107.613 69.7193C107.083 69.0579 106.343 68.744 105.512 68.744V69.744V70.744C105.8 70.744 105.94 70.8301 106.051 70.9687L106.832 70.344ZM105.512 69.744V68.744C104.697 68.744 103.921 68.9963 103.376 69.649C102.86 70.2672 102.688 71.0853 102.688 71.928H103.688H104.688C104.688 71.3147 104.819 71.0408 104.911 70.931C104.974 70.8557 105.11 70.744 105.512 70.744V69.744ZM103.688 71.928H102.688C102.688 72.7424 102.91 73.5077 103.341 74.2055L104.192 73.68L105.042 73.1545C104.801 72.7643 104.688 72.3616 104.688 71.928H103.688ZM104.192 73.68L103.348 74.2169C103.779 74.8949 104.355 75.4158 105.074 75.7424L105.488 74.832L105.901 73.9216C105.564 73.7682 105.276 73.5211 105.035 73.1431L104.192 73.68ZM128.388 75.096H129.388V74.096H128.388V75.096ZM128.388 78V79H129.388V78H128.388ZM123.3 77.592L122.943 78.5259L122.955 78.5304L122.967 78.5346L123.3 77.592ZM121.188 76.104L121.92 75.4223L121.355 74.8158L120.654 75.2587L121.188 76.104ZM110.724 78H109.724V79H110.724V78ZM110.724 75.096V74.096H109.724V75.096H110.724ZM121.02 72.576L121.731 73.2797L122.266 72.7397L121.889 72.0799L121.02 72.576ZM112.86 71.808H111.86V74.0798L113.536 72.5455L112.86 71.808ZM112.86 69.144L112.122 68.4697L111.86 68.7562V69.144H112.86ZM124.212 72.192H125.212V71.9381L125.091 71.7149L124.212 72.192ZM124.212 73.392L125.008 73.998L125.212 73.7295V73.392H124.212ZM123.204 74.52L122.497 73.8129L121.592 74.7185L122.69 75.3775L123.204 74.52ZM126.372 75.096V76.096H128.388V75.096V74.096H126.372V75.096ZM128.388 75.096H127.388V78H128.388H129.388V75.096H128.388ZM128.388 78V77H126.348V78V79H128.388V78ZM126.348 78V77C125.142 77 124.253 76.8685 123.634 76.6494L123.3 77.592L122.967 78.5346C123.884 78.8596 125.026 79 126.348 79V78ZM123.3 77.592L123.658 76.6581C123.073 76.4342 122.492 76.0363 121.92 75.4223L121.188 76.104L120.457 76.7857C121.197 77.5797 122.023 78.1738 122.943 78.5259L123.3 77.592ZM121.188 76.104L120.654 75.2587C118.83 76.4114 116.715 77 114.276 77V78V79C117.053 79 119.547 78.3246 121.723 76.9493L121.188 76.104ZM114.276 78V77H110.724V78V79H114.276V78ZM110.724 78H111.724V75.096H110.724H109.724V78H110.724ZM110.724 75.096V76.096H114.3V75.096V74.096H110.724V75.096ZM114.3 75.096V76.096C117.329 76.096 119.844 75.185 121.731 73.2797L121.02 72.576L120.31 71.8723C118.869 73.327 116.904 74.096 114.3 74.096V75.096ZM121.02 72.576L121.889 72.0799C120.705 70.0079 119.111 68.72 117.06 68.72V69.72V70.72C118.114 70.72 119.16 71.3361 120.152 73.0721L121.02 72.576ZM117.06 69.72V68.72C115.416 68.72 113.783 69.6073 112.185 71.0705L112.86 71.808L113.536 72.5455C114.978 71.2247 116.145 70.72 117.06 70.72V69.72ZM112.86 71.808H113.86V69.144H112.86H111.86V71.808H112.86ZM112.86 69.144L113.599 69.8183C114.79 68.514 116.055 67.936 117.42 67.936V66.936V65.936C115.394 65.936 113.619 66.83 112.122 68.4697L112.86 69.144ZM117.42 66.936V67.936C118.406 67.936 119.413 68.2915 120.458 69.0962L121.068 68.304L121.679 67.5118C120.355 66.4925 118.93 65.936 117.42 65.936V66.936ZM121.068 68.304L120.458 69.0962C121.505 69.9028 122.47 71.0788 123.334 72.6691L124.212 72.192L125.091 71.7149C124.131 69.9452 122.999 68.5292 121.679 67.5118L121.068 68.304ZM124.212 72.192H123.212V73.392H124.212H125.212V72.192H124.212ZM124.212 73.392L123.417 72.786C123.196 73.0756 122.893 73.4173 122.497 73.8129L123.204 74.52L123.911 75.2271C124.348 74.7907 124.716 74.3804 125.008 73.998L124.212 73.392ZM123.204 74.52L122.69 75.3775C123.575 75.9085 124.864 76.096 126.372 76.096V75.096V74.096C124.936 74.096 124.114 73.8995 123.719 73.6625L123.204 74.52ZM130.255 64.488L129.548 65.1951L130.255 64.488ZM130.255 62.184L129.548 61.4769V61.4769L130.255 62.184ZM132.535 62.184L131.808 62.8706L131.828 62.8914L131.849 62.911L132.535 62.184ZM125.983 78H124.983V79H125.983V78ZM125.983 75.096V74.096H124.983V75.096H125.983ZM129.439 74.712L130.146 75.4191L130.157 75.4084L130.167 75.3974L129.439 74.712ZM129.823 68.928L129.359 68.0422L128.823 68.3229V68.928H129.823ZM132.847 67.344H133.847V65.6913L132.383 66.4582L132.847 67.344ZM131.503 76.92L130.83 76.1807L130.827 76.1835L131.503 76.92ZM131.407 64.92V63.92C131.141 63.92 131.029 63.8482 130.962 63.7809L130.255 64.488L129.548 65.1951C130.057 65.7038 130.713 65.92 131.407 65.92V64.92ZM130.255 64.488L130.962 63.7809C130.901 63.7199 130.823 63.6043 130.823 63.312H129.823H128.823C128.823 64.0117 129.033 64.6801 129.548 65.1951L130.255 64.488ZM129.823 63.312H130.823C130.823 63.0731 130.888 62.965 130.962 62.8911L130.255 62.184L129.548 61.4769C129.046 61.979 128.823 62.6229 128.823 63.312H129.823ZM130.255 62.184L130.962 62.8911C131.029 62.8238 131.141 62.752 131.407 62.752V61.752V60.752C130.713 60.752 130.057 60.9682 129.548 61.4769L130.255 62.184ZM131.407 61.752V62.752C131.675 62.752 131.764 62.8241 131.808 62.8706L132.535 62.184L133.262 61.4974C132.762 60.9679 132.1 60.752 131.407 60.752V61.752ZM132.535 62.184L131.849 62.911C131.895 62.955 131.967 63.0444 131.967 63.312H132.967H133.967C133.967 62.6196 133.751 61.957 133.222 61.457L132.535 62.184ZM132.967 63.312H131.967C131.967 63.7013 131.872 63.8083 131.859 63.8217C131.852 63.8295 131.765 63.92 131.407 63.92V64.92V65.92C132.089 65.92 132.782 65.7425 133.295 65.2143C133.802 64.6917 133.967 63.9947 133.967 63.312H132.967ZM125.983 78H126.983V75.096H125.983H124.983V78H125.983ZM125.983 75.096V76.096H128.143V75.096V74.096H125.983V75.096ZM128.143 75.096V76.096C128.847 76.096 129.61 75.9558 130.146 75.4191L129.439 74.712L128.732 74.0049C128.747 73.9896 128.734 74.0131 128.639 74.0412C128.541 74.0702 128.382 74.096 128.143 74.096V75.096ZM129.439 74.712L130.167 75.3974C130.683 74.8493 130.823 74.0868 130.823 73.368H129.823H128.823C128.823 73.6164 128.797 73.787 128.766 73.8973C128.735 74.005 128.706 74.0322 128.711 74.0266L129.439 74.712ZM129.823 73.368H130.823V68.928H129.823H128.823V73.368H129.823ZM129.823 68.928L130.287 69.8138L133.311 68.2298L132.847 67.344L132.383 66.4582L129.359 68.0422L129.823 68.928ZM132.847 67.344H131.847V73.512H132.847H133.847V67.344H132.847ZM132.847 73.512H131.847C131.847 74.7481 131.476 75.592 130.83 76.1807L131.503 76.92L132.176 77.6593C133.322 76.616 133.847 75.1879 133.847 73.512H132.847ZM131.503 76.92L130.827 76.1835C130.261 76.7031 129.494 77 128.431 77V78V79C129.896 79 131.177 78.5769 132.18 77.6565L131.503 76.92ZM128.431 78V77H125.983V78V79H128.431V78Z" fill="#FF7500" mask="url(#path-10-outside-2_414_23)"/>
</svg>
