<svg width="53" height="24" viewBox="0 0 53 24" fill="none" xmlns="http://www.w3.org/2000/svg">
<path d="M1.28 4.34H9.56V6.44H3.9V9.42H8.62V11.52H3.9V14.9H9.82V17H1.28V4.34ZM13.9172 8.8C14.1839 8.49333 14.5839 8.23333 15.1172 8.02C15.6505 7.79333 16.1572 7.68 16.6372 7.68C17.7839 7.68 18.6105 7.99333 19.1172 8.62C19.6372 9.24667 19.8972 10.26 19.8972 11.66V17H17.3572V11.76C17.3572 10.4533 16.7772 9.8 15.6172 9.8C15.3239 9.8 15.0105 9.86667 14.6772 10C14.3439 10.12 14.1172 10.26 13.9972 10.42V17H11.4772V7.92H13.6172C13.6839 8.26667 13.7505 8.56 13.8172 8.8H13.9172Z" fill="#1364A2"/>
<g clip-path="url(#clip0_419_3)">
<path d="M49.0002 2H38.3335V5.33333H39.6668V3.33333H49.0002C49.4002 3.33333 49.6668 3.6 49.6668 4V11.3333C49.6668 11.7333 49.4002 12 49.0002 12H40.3335V16.6667H36.8002L34.3335 18.6V16.6667H32.3335C31.9335 16.6667 31.6668 16.4 31.6668 16V8.66667C31.6668 8.26667 31.9335 8 32.3335 8H41.0002V6.66667H32.3335C31.2002 6.66667 30.3335 7.53333 30.3335 8.66667V16C30.3335 17.1333 31.2002 18 32.3335 18H33.0002V21.4L37.2002 18H41.6668V13.3333H49.0002C50.1335 13.3333 51.0002 12.4667 51.0002 11.3333V4C51.0002 2.86667 50.1335 2 49.0002 2Z" fill="#1364A2"/>
<path d="M33.1333 15.2667H34.7333L35.1333 14.2H37.2L37.6 15.2667H39.2L36.9333 9.33337H35.3333L33.1333 15.2667ZM36.1333 11L36.8 13.0667H35.4666L36.1333 11Z" fill="#1364A2"/>
<path d="M42.3335 11.3333C43.0668 11.3333 44.0668 11.1333 45.0002 10.6667C45.9335 11.1333 47.0002 11.3333 47.6668 11.3333V10C47.6668 10 47.0002 10 46.2668 9.73333C47.0668 8.93333 47.6668 7.73333 47.6668 6V5.33333H45.6668V4H44.3335V5.33333H42.3335V6.66667H46.2668C46.1335 7.86667 45.6002 8.6 45.0002 9.06667C44.6002 8.73333 44.2002 8.26667 43.9335 7.66667H42.5335C42.8002 8.53333 43.2002 9.2 43.7335 9.73333C43.0668 10 42.4668 10 42.3335 10V11.3333Z" fill="#1364A2"/>
</g>
<defs>
<clipPath id="clip0_419_3">
<rect width="24" height="24" fill="white" transform="translate(29)"/>
</clipPath>
</defs>
</svg>
